<?xml version="1.0" encoding="utf-8" standalone="no"?>
<!DOCTYPE svg PUBLIC "-//W3C//DTD SVG 1.1//EN"
  "http://www.w3.org/Graphics/SVG/1.1/DTD/svg11.dtd">
<!-- Created with matplotlib (https://matplotlib.org/) -->
<svg height="262.19625pt" version="1.1" viewBox="0 0 376.240625 262.19625" width="376.240625pt" xmlns="http://www.w3.org/2000/svg" xmlns:xlink="http://www.w3.org/1999/xlink">
 <metadata>
  <rdf:RDF xmlns:cc="http://creativecommons.org/ns#" xmlns:dc="http://purl.org/dc/elements/1.1/" xmlns:rdf="http://www.w3.org/1999/02/22-rdf-syntax-ns#">
   <cc:Work>
    <dc:type rdf:resource="http://purl.org/dc/dcmitype/StillImage"/>
    <dc:date>2021-05-13T05:38:18.163151</dc:date>
    <dc:format>image/svg+xml</dc:format>
    <dc:creator>
     <cc:Agent>
      <dc:title>Matplotlib v3.3.4, https://matplotlib.org/</dc:title>
     </cc:Agent>
    </dc:creator>
   </cc:Work>
  </rdf:RDF>
 </metadata>
 <defs>
  <style type="text/css">*{stroke-linecap:butt;stroke-linejoin:round;}</style>
 </defs>
 <g id="figure_1">
  <g id="patch_1">
   <path d="M 0 262.19625 
L 376.240625 262.19625 
L 376.240625 0 
L 0 0 
z
" style="fill:none;"/>
  </g>
  <g id="axes_1">
   <g id="patch_2">
    <path d="M 34.240625 224.64 
L 369.040625 224.64 
L 369.040625 7.2 
L 34.240625 7.2 
z
" style="fill:#ffffff;"/>
   </g>
   <g id="matplotlib.axis_1">
    <g id="xtick_1">
     <g id="line2d_1">
      <defs>
       <path d="M 0 0 
L 0 3.5 
" id="m92b5bbee91" style="stroke:#000000;stroke-width:0.8;"/>
      </defs>
      <g>
       <use style="stroke:#000000;stroke-width:0.8;" x="49.458807" xlink:href="#m92b5bbee91" y="224.64"/>
      </g>
     </g>
     <g id="text_1">
      <!-- 0 -->
      <g transform="translate(46.277557 239.238437)scale(0.1 -0.1)">
       <defs>
        <path d="M 31.78125 66.40625 
Q 24.171875 66.40625 20.328125 58.90625 
Q 16.5 51.421875 16.5 36.375 
Q 16.5 21.390625 20.328125 13.890625 
Q 24.171875 6.390625 31.78125 6.390625 
Q 39.453125 6.390625 43.28125 13.890625 
Q 47.125 21.390625 47.125 36.375 
Q 47.125 51.421875 43.28125 58.90625 
Q 39.453125 66.40625 31.78125 66.40625 
z
M 31.78125 74.21875 
Q 44.046875 74.21875 50.515625 64.515625 
Q 56.984375 54.828125 56.984375 36.375 
Q 56.984375 17.96875 50.515625 8.265625 
Q 44.046875 -1.421875 31.78125 -1.421875 
Q 19.53125 -1.421875 13.0625 8.265625 
Q 6.59375 17.96875 6.59375 36.375 
Q 6.59375 54.828125 13.0625 64.515625 
Q 19.53125 74.21875 31.78125 74.21875 
z
" id="DejaVuSans-48"/>
       </defs>
       <use xlink:href="#DejaVuSans-48"/>
      </g>
     </g>
    </g>
    <g id="xtick_2">
     <g id="line2d_2">
      <g>
       <use style="stroke:#000000;stroke-width:0.8;" x="87.523294" xlink:href="#m92b5bbee91" y="224.64"/>
      </g>
     </g>
     <g id="text_2">
      <!-- 250 -->
      <g transform="translate(77.979544 239.238437)scale(0.1 -0.1)">
       <defs>
        <path d="M 19.1875 8.296875 
L 53.609375 8.296875 
L 53.609375 0 
L 7.328125 0 
L 7.328125 8.296875 
Q 12.9375 14.109375 22.625 23.890625 
Q 32.328125 33.6875 34.8125 36.53125 
Q 39.546875 41.84375 41.421875 45.53125 
Q 43.3125 49.21875 43.3125 52.78125 
Q 43.3125 58.59375 39.234375 62.25 
Q 35.15625 65.921875 28.609375 65.921875 
Q 23.96875 65.921875 18.8125 64.3125 
Q 13.671875 62.703125 7.8125 59.421875 
L 7.8125 69.390625 
Q 13.765625 71.78125 18.9375 73 
Q 24.125 74.21875 28.421875 74.21875 
Q 39.75 74.21875 46.484375 68.546875 
Q 53.21875 62.890625 53.21875 53.421875 
Q 53.21875 48.921875 51.53125 44.890625 
Q 49.859375 40.875 45.40625 35.40625 
Q 44.1875 33.984375 37.640625 27.21875 
Q 31.109375 20.453125 19.1875 8.296875 
z
" id="DejaVuSans-50"/>
        <path d="M 10.796875 72.90625 
L 49.515625 72.90625 
L 49.515625 64.59375 
L 19.828125 64.59375 
L 19.828125 46.734375 
Q 21.96875 47.46875 24.109375 47.828125 
Q 26.265625 48.1875 28.421875 48.1875 
Q 40.625 48.1875 47.75 41.5 
Q 54.890625 34.8125 54.890625 23.390625 
Q 54.890625 11.625 47.5625 5.09375 
Q 40.234375 -1.421875 26.90625 -1.421875 
Q 22.3125 -1.421875 17.546875 -0.640625 
Q 12.796875 0.140625 7.71875 1.703125 
L 7.71875 11.625 
Q 12.109375 9.234375 16.796875 8.0625 
Q 21.484375 6.890625 26.703125 6.890625 
Q 35.15625 6.890625 40.078125 11.328125 
Q 45.015625 15.765625 45.015625 23.390625 
Q 45.015625 31 40.078125 35.4375 
Q 35.15625 39.890625 26.703125 39.890625 
Q 22.75 39.890625 18.8125 39.015625 
Q 14.890625 38.140625 10.796875 36.28125 
z
" id="DejaVuSans-53"/>
       </defs>
       <use xlink:href="#DejaVuSans-50"/>
       <use x="63.623047" xlink:href="#DejaVuSans-53"/>
       <use x="127.246094" xlink:href="#DejaVuSans-48"/>
      </g>
     </g>
    </g>
    <g id="xtick_3">
     <g id="line2d_3">
      <g>
       <use style="stroke:#000000;stroke-width:0.8;" x="125.58778" xlink:href="#m92b5bbee91" y="224.64"/>
      </g>
     </g>
     <g id="text_3">
      <!-- 500 -->
      <g transform="translate(116.04403 239.238437)scale(0.1 -0.1)">
       <use xlink:href="#DejaVuSans-53"/>
       <use x="63.623047" xlink:href="#DejaVuSans-48"/>
       <use x="127.246094" xlink:href="#DejaVuSans-48"/>
      </g>
     </g>
    </g>
    <g id="xtick_4">
     <g id="line2d_4">
      <g>
       <use style="stroke:#000000;stroke-width:0.8;" x="163.652267" xlink:href="#m92b5bbee91" y="224.64"/>
      </g>
     </g>
     <g id="text_4">
      <!-- 750 -->
      <g transform="translate(154.108517 239.238437)scale(0.1 -0.1)">
       <defs>
        <path d="M 8.203125 72.90625 
L 55.078125 72.90625 
L 55.078125 68.703125 
L 28.609375 0 
L 18.3125 0 
L 43.21875 64.59375 
L 8.203125 64.59375 
z
" id="DejaVuSans-55"/>
       </defs>
       <use xlink:href="#DejaVuSans-55"/>
       <use x="63.623047" xlink:href="#DejaVuSans-53"/>
       <use x="127.246094" xlink:href="#DejaVuSans-48"/>
      </g>
     </g>
    </g>
    <g id="xtick_5">
     <g id="line2d_5">
      <g>
       <use style="stroke:#000000;stroke-width:0.8;" x="201.716754" xlink:href="#m92b5bbee91" y="224.64"/>
      </g>
     </g>
     <g id="text_5">
      <!-- 1000 -->
      <g transform="translate(188.991754 239.238437)scale(0.1 -0.1)">
       <defs>
        <path d="M 12.40625 8.296875 
L 28.515625 8.296875 
L 28.515625 63.921875 
L 10.984375 60.40625 
L 10.984375 69.390625 
L 28.421875 72.90625 
L 38.28125 72.90625 
L 38.28125 8.296875 
L 54.390625 8.296875 
L 54.390625 0 
L 12.40625 0 
z
" id="DejaVuSans-49"/>
       </defs>
       <use xlink:href="#DejaVuSans-49"/>
       <use x="63.623047" xlink:href="#DejaVuSans-48"/>
       <use x="127.246094" xlink:href="#DejaVuSans-48"/>
       <use x="190.869141" xlink:href="#DejaVuSans-48"/>
      </g>
     </g>
    </g>
    <g id="xtick_6">
     <g id="line2d_6">
      <g>
       <use style="stroke:#000000;stroke-width:0.8;" x="239.781241" xlink:href="#m92b5bbee91" y="224.64"/>
      </g>
     </g>
     <g id="text_6">
      <!-- 1250 -->
      <g transform="translate(227.056241 239.238437)scale(0.1 -0.1)">
       <use xlink:href="#DejaVuSans-49"/>
       <use x="63.623047" xlink:href="#DejaVuSans-50"/>
       <use x="127.246094" xlink:href="#DejaVuSans-53"/>
       <use x="190.869141" xlink:href="#DejaVuSans-48"/>
      </g>
     </g>
    </g>
    <g id="xtick_7">
     <g id="line2d_7">
      <g>
       <use style="stroke:#000000;stroke-width:0.8;" x="277.845728" xlink:href="#m92b5bbee91" y="224.64"/>
      </g>
     </g>
     <g id="text_7">
      <!-- 1500 -->
      <g transform="translate(265.120728 239.238437)scale(0.1 -0.1)">
       <use xlink:href="#DejaVuSans-49"/>
       <use x="63.623047" xlink:href="#DejaVuSans-53"/>
       <use x="127.246094" xlink:href="#DejaVuSans-48"/>
       <use x="190.869141" xlink:href="#DejaVuSans-48"/>
      </g>
     </g>
    </g>
    <g id="xtick_8">
     <g id="line2d_8">
      <g>
       <use style="stroke:#000000;stroke-width:0.8;" x="315.910214" xlink:href="#m92b5bbee91" y="224.64"/>
      </g>
     </g>
     <g id="text_8">
      <!-- 1750 -->
      <g transform="translate(303.185214 239.238437)scale(0.1 -0.1)">
       <use xlink:href="#DejaVuSans-49"/>
       <use x="63.623047" xlink:href="#DejaVuSans-55"/>
       <use x="127.246094" xlink:href="#DejaVuSans-53"/>
       <use x="190.869141" xlink:href="#DejaVuSans-48"/>
      </g>
     </g>
    </g>
    <g id="xtick_9">
     <g id="line2d_9">
      <g>
       <use style="stroke:#000000;stroke-width:0.8;" x="353.974701" xlink:href="#m92b5bbee91" y="224.64"/>
      </g>
     </g>
     <g id="text_9">
      <!-- 2000 -->
      <g transform="translate(341.249701 239.238437)scale(0.1 -0.1)">
       <use xlink:href="#DejaVuSans-50"/>
       <use x="63.623047" xlink:href="#DejaVuSans-48"/>
       <use x="127.246094" xlink:href="#DejaVuSans-48"/>
       <use x="190.869141" xlink:href="#DejaVuSans-48"/>
      </g>
     </g>
    </g>
    <g id="text_10">
     <!-- epochs -->
     <g transform="translate(183.807813 252.916562)scale(0.1 -0.1)">
      <defs>
       <path d="M 56.203125 29.59375 
L 56.203125 25.203125 
L 14.890625 25.203125 
Q 15.484375 15.921875 20.484375 11.0625 
Q 25.484375 6.203125 34.421875 6.203125 
Q 39.59375 6.203125 44.453125 7.46875 
Q 49.3125 8.734375 54.109375 11.28125 
L 54.109375 2.78125 
Q 49.265625 0.734375 44.1875 -0.34375 
Q 39.109375 -1.421875 33.890625 -1.421875 
Q 20.796875 -1.421875 13.15625 6.1875 
Q 5.515625 13.8125 5.515625 26.8125 
Q 5.515625 40.234375 12.765625 48.109375 
Q 20.015625 56 32.328125 56 
Q 43.359375 56 49.78125 48.890625 
Q 56.203125 41.796875 56.203125 29.59375 
z
M 47.21875 32.234375 
Q 47.125 39.59375 43.09375 43.984375 
Q 39.0625 48.390625 32.421875 48.390625 
Q 24.90625 48.390625 20.390625 44.140625 
Q 15.875 39.890625 15.1875 32.171875 
z
" id="DejaVuSans-101"/>
       <path d="M 18.109375 8.203125 
L 18.109375 -20.796875 
L 9.078125 -20.796875 
L 9.078125 54.6875 
L 18.109375 54.6875 
L 18.109375 46.390625 
Q 20.953125 51.265625 25.265625 53.625 
Q 29.59375 56 35.59375 56 
Q 45.5625 56 51.78125 48.09375 
Q 58.015625 40.1875 58.015625 27.296875 
Q 58.015625 14.40625 51.78125 6.484375 
Q 45.5625 -1.421875 35.59375 -1.421875 
Q 29.59375 -1.421875 25.265625 0.953125 
Q 20.953125 3.328125 18.109375 8.203125 
z
M 48.6875 27.296875 
Q 48.6875 37.203125 44.609375 42.84375 
Q 40.53125 48.484375 33.40625 48.484375 
Q 26.265625 48.484375 22.1875 42.84375 
Q 18.109375 37.203125 18.109375 27.296875 
Q 18.109375 17.390625 22.1875 11.75 
Q 26.265625 6.109375 33.40625 6.109375 
Q 40.53125 6.109375 44.609375 11.75 
Q 48.6875 17.390625 48.6875 27.296875 
z
" id="DejaVuSans-112"/>
       <path d="M 30.609375 48.390625 
Q 23.390625 48.390625 19.1875 42.75 
Q 14.984375 37.109375 14.984375 27.296875 
Q 14.984375 17.484375 19.15625 11.84375 
Q 23.34375 6.203125 30.609375 6.203125 
Q 37.796875 6.203125 41.984375 11.859375 
Q 46.1875 17.53125 46.1875 27.296875 
Q 46.1875 37.015625 41.984375 42.703125 
Q 37.796875 48.390625 30.609375 48.390625 
z
M 30.609375 56 
Q 42.328125 56 49.015625 48.375 
Q 55.71875 40.765625 55.71875 27.296875 
Q 55.71875 13.875 49.015625 6.21875 
Q 42.328125 -1.421875 30.609375 -1.421875 
Q 18.84375 -1.421875 12.171875 6.21875 
Q 5.515625 13.875 5.515625 27.296875 
Q 5.515625 40.765625 12.171875 48.375 
Q 18.84375 56 30.609375 56 
z
" id="DejaVuSans-111"/>
       <path d="M 48.78125 52.59375 
L 48.78125 44.1875 
Q 44.96875 46.296875 41.140625 47.34375 
Q 37.3125 48.390625 33.40625 48.390625 
Q 24.65625 48.390625 19.8125 42.84375 
Q 14.984375 37.3125 14.984375 27.296875 
Q 14.984375 17.28125 19.8125 11.734375 
Q 24.65625 6.203125 33.40625 6.203125 
Q 37.3125 6.203125 41.140625 7.25 
Q 44.96875 8.296875 48.78125 10.40625 
L 48.78125 2.09375 
Q 45.015625 0.34375 40.984375 -0.53125 
Q 36.96875 -1.421875 32.421875 -1.421875 
Q 20.0625 -1.421875 12.78125 6.34375 
Q 5.515625 14.109375 5.515625 27.296875 
Q 5.515625 40.671875 12.859375 48.328125 
Q 20.21875 56 33.015625 56 
Q 37.15625 56 41.109375 55.140625 
Q 45.0625 54.296875 48.78125 52.59375 
z
" id="DejaVuSans-99"/>
       <path d="M 54.890625 33.015625 
L 54.890625 0 
L 45.90625 0 
L 45.90625 32.71875 
Q 45.90625 40.484375 42.875 44.328125 
Q 39.84375 48.1875 33.796875 48.1875 
Q 26.515625 48.1875 22.3125 43.546875 
Q 18.109375 38.921875 18.109375 30.90625 
L 18.109375 0 
L 9.078125 0 
L 9.078125 75.984375 
L 18.109375 75.984375 
L 18.109375 46.1875 
Q 21.34375 51.125 25.703125 53.5625 
Q 30.078125 56 35.796875 56 
Q 45.21875 56 50.046875 50.171875 
Q 54.890625 44.34375 54.890625 33.015625 
z
" id="DejaVuSans-104"/>
       <path d="M 44.28125 53.078125 
L 44.28125 44.578125 
Q 40.484375 46.53125 36.375 47.5 
Q 32.28125 48.484375 27.875 48.484375 
Q 21.1875 48.484375 17.84375 46.4375 
Q 14.5 44.390625 14.5 40.28125 
Q 14.5 37.15625 16.890625 35.375 
Q 19.28125 33.59375 26.515625 31.984375 
L 29.59375 31.296875 
Q 39.15625 29.25 43.1875 25.515625 
Q 47.21875 21.78125 47.21875 15.09375 
Q 47.21875 7.46875 41.1875 3.015625 
Q 35.15625 -1.421875 24.609375 -1.421875 
Q 20.21875 -1.421875 15.453125 -0.5625 
Q 10.6875 0.296875 5.421875 2 
L 5.421875 11.28125 
Q 10.40625 8.6875 15.234375 7.390625 
Q 20.0625 6.109375 24.8125 6.109375 
Q 31.15625 6.109375 34.5625 8.28125 
Q 37.984375 10.453125 37.984375 14.40625 
Q 37.984375 18.0625 35.515625 20.015625 
Q 33.0625 21.96875 24.703125 23.78125 
L 21.578125 24.515625 
Q 13.234375 26.265625 9.515625 29.90625 
Q 5.8125 33.546875 5.8125 39.890625 
Q 5.8125 47.609375 11.28125 51.796875 
Q 16.75 56 26.8125 56 
Q 31.78125 56 36.171875 55.265625 
Q 40.578125 54.546875 44.28125 53.078125 
z
" id="DejaVuSans-115"/>
      </defs>
      <use xlink:href="#DejaVuSans-101"/>
      <use x="61.523438" xlink:href="#DejaVuSans-112"/>
      <use x="125" xlink:href="#DejaVuSans-111"/>
      <use x="186.181641" xlink:href="#DejaVuSans-99"/>
      <use x="241.162109" xlink:href="#DejaVuSans-104"/>
      <use x="304.541016" xlink:href="#DejaVuSans-115"/>
     </g>
    </g>
   </g>
   <g id="matplotlib.axis_2">
    <g id="ytick_1">
     <g id="line2d_10">
      <defs>
       <path d="M 0 0 
L -3.5 0 
" id="m44d30a3f18" style="stroke:#000000;stroke-width:0.8;"/>
      </defs>
      <g>
       <use style="stroke:#000000;stroke-width:0.8;" x="34.240625" xlink:href="#m44d30a3f18" y="218.801887"/>
      </g>
     </g>
     <g id="text_11">
      <!-- 0 -->
      <g transform="translate(20.878125 222.601105)scale(0.1 -0.1)">
       <use xlink:href="#DejaVuSans-48"/>
      </g>
     </g>
    </g>
    <g id="ytick_2">
     <g id="line2d_11">
      <g>
       <use style="stroke:#000000;stroke-width:0.8;" x="34.240625" xlink:href="#m44d30a3f18" y="185.142441"/>
      </g>
     </g>
     <g id="text_12">
      <!-- 1 -->
      <g transform="translate(20.878125 188.94166)scale(0.1 -0.1)">
       <use xlink:href="#DejaVuSans-49"/>
      </g>
     </g>
    </g>
    <g id="ytick_3">
     <g id="line2d_12">
      <g>
       <use style="stroke:#000000;stroke-width:0.8;" x="34.240625" xlink:href="#m44d30a3f18" y="151.482995"/>
      </g>
     </g>
     <g id="text_13">
      <!-- 2 -->
      <g transform="translate(20.878125 155.282214)scale(0.1 -0.1)">
       <use xlink:href="#DejaVuSans-50"/>
      </g>
     </g>
    </g>
    <g id="ytick_4">
     <g id="line2d_13">
      <g>
       <use style="stroke:#000000;stroke-width:0.8;" x="34.240625" xlink:href="#m44d30a3f18" y="117.82355"/>
      </g>
     </g>
     <g id="text_14">
      <!-- 3 -->
      <g transform="translate(20.878125 121.622768)scale(0.1 -0.1)">
       <defs>
        <path d="M 40.578125 39.3125 
Q 47.65625 37.796875 51.625 33 
Q 55.609375 28.21875 55.609375 21.1875 
Q 55.609375 10.40625 48.1875 4.484375 
Q 40.765625 -1.421875 27.09375 -1.421875 
Q 22.515625 -1.421875 17.65625 -0.515625 
Q 12.796875 0.390625 7.625 2.203125 
L 7.625 11.71875 
Q 11.71875 9.328125 16.59375 8.109375 
Q 21.484375 6.890625 26.8125 6.890625 
Q 36.078125 6.890625 40.9375 10.546875 
Q 45.796875 14.203125 45.796875 21.1875 
Q 45.796875 27.640625 41.28125 31.265625 
Q 36.765625 34.90625 28.71875 34.90625 
L 20.21875 34.90625 
L 20.21875 43.015625 
L 29.109375 43.015625 
Q 36.375 43.015625 40.234375 45.921875 
Q 44.09375 48.828125 44.09375 54.296875 
Q 44.09375 59.90625 40.109375 62.90625 
Q 36.140625 65.921875 28.71875 65.921875 
Q 24.65625 65.921875 20.015625 65.03125 
Q 15.375 64.15625 9.8125 62.3125 
L 9.8125 71.09375 
Q 15.4375 72.65625 20.34375 73.4375 
Q 25.25 74.21875 29.59375 74.21875 
Q 40.828125 74.21875 47.359375 69.109375 
Q 53.90625 64.015625 53.90625 55.328125 
Q 53.90625 49.265625 50.4375 45.09375 
Q 46.96875 40.921875 40.578125 39.3125 
z
" id="DejaVuSans-51"/>
       </defs>
       <use xlink:href="#DejaVuSans-51"/>
      </g>
     </g>
    </g>
    <g id="ytick_5">
     <g id="line2d_14">
      <g>
       <use style="stroke:#000000;stroke-width:0.8;" x="34.240625" xlink:href="#m44d30a3f18" y="84.164104"/>
      </g>
     </g>
     <g id="text_15">
      <!-- 4 -->
      <g transform="translate(20.878125 87.963323)scale(0.1 -0.1)">
       <defs>
        <path d="M 37.796875 64.3125 
L 12.890625 25.390625 
L 37.796875 25.390625 
z
M 35.203125 72.90625 
L 47.609375 72.90625 
L 47.609375 25.390625 
L 58.015625 25.390625 
L 58.015625 17.1875 
L 47.609375 17.1875 
L 47.609375 0 
L 37.796875 0 
L 37.796875 17.1875 
L 4.890625 17.1875 
L 4.890625 26.703125 
z
" id="DejaVuSans-52"/>
       </defs>
       <use xlink:href="#DejaVuSans-52"/>
      </g>
     </g>
    </g>
    <g id="ytick_6">
     <g id="line2d_15">
      <g>
       <use style="stroke:#000000;stroke-width:0.8;" x="34.240625" xlink:href="#m44d30a3f18" y="50.504658"/>
      </g>
     </g>
     <g id="text_16">
      <!-- 5 -->
      <g transform="translate(20.878125 54.303877)scale(0.1 -0.1)">
       <use xlink:href="#DejaVuSans-53"/>
      </g>
     </g>
    </g>
    <g id="ytick_7">
     <g id="line2d_16">
      <g>
       <use style="stroke:#000000;stroke-width:0.8;" x="34.240625" xlink:href="#m44d30a3f18" y="16.845213"/>
      </g>
     </g>
     <g id="text_17">
      <!-- 6 -->
      <g transform="translate(20.878125 20.644431)scale(0.1 -0.1)">
       <defs>
        <path d="M 33.015625 40.375 
Q 26.375 40.375 22.484375 35.828125 
Q 18.609375 31.296875 18.609375 23.390625 
Q 18.609375 15.53125 22.484375 10.953125 
Q 26.375 6.390625 33.015625 6.390625 
Q 39.65625 6.390625 43.53125 10.953125 
Q 47.40625 15.53125 47.40625 23.390625 
Q 47.40625 31.296875 43.53125 35.828125 
Q 39.65625 40.375 33.015625 40.375 
z
M 52.59375 71.296875 
L 52.59375 62.3125 
Q 48.875 64.0625 45.09375 64.984375 
Q 41.3125 65.921875 37.59375 65.921875 
Q 27.828125 65.921875 22.671875 59.328125 
Q 17.53125 52.734375 16.796875 39.40625 
Q 19.671875 43.65625 24.015625 45.921875 
Q 28.375 48.1875 33.59375 48.1875 
Q 44.578125 48.1875 50.953125 41.515625 
Q 57.328125 34.859375 57.328125 23.390625 
Q 57.328125 12.15625 50.6875 5.359375 
Q 44.046875 -1.421875 33.015625 -1.421875 
Q 20.359375 -1.421875 13.671875 8.265625 
Q 6.984375 17.96875 6.984375 36.375 
Q 6.984375 53.65625 15.1875 63.9375 
Q 23.390625 74.21875 37.203125 74.21875 
Q 40.921875 74.21875 44.703125 73.484375 
Q 48.484375 72.75 52.59375 71.296875 
z
" id="DejaVuSans-54"/>
       </defs>
       <use xlink:href="#DejaVuSans-54"/>
      </g>
     </g>
    </g>
    <g id="text_18">
     <!-- RMSE loss -->
     <g transform="translate(14.798437 141.28875)rotate(-90)scale(0.1 -0.1)">
      <defs>
       <path d="M 44.390625 34.1875 
Q 47.5625 33.109375 50.5625 29.59375 
Q 53.5625 26.078125 56.59375 19.921875 
L 66.609375 0 
L 56 0 
L 46.6875 18.703125 
Q 43.0625 26.03125 39.671875 28.421875 
Q 36.28125 30.8125 30.421875 30.8125 
L 19.671875 30.8125 
L 19.671875 0 
L 9.8125 0 
L 9.8125 72.90625 
L 32.078125 72.90625 
Q 44.578125 72.90625 50.734375 67.671875 
Q 56.890625 62.453125 56.890625 51.90625 
Q 56.890625 45.015625 53.6875 40.46875 
Q 50.484375 35.9375 44.390625 34.1875 
z
M 19.671875 64.796875 
L 19.671875 38.921875 
L 32.078125 38.921875 
Q 39.203125 38.921875 42.84375 42.21875 
Q 46.484375 45.515625 46.484375 51.90625 
Q 46.484375 58.296875 42.84375 61.546875 
Q 39.203125 64.796875 32.078125 64.796875 
z
" id="DejaVuSans-82"/>
       <path d="M 9.8125 72.90625 
L 24.515625 72.90625 
L 43.109375 23.296875 
L 61.8125 72.90625 
L 76.515625 72.90625 
L 76.515625 0 
L 66.890625 0 
L 66.890625 64.015625 
L 48.09375 14.015625 
L 38.1875 14.015625 
L 19.390625 64.015625 
L 19.390625 0 
L 9.8125 0 
z
" id="DejaVuSans-77"/>
       <path d="M 53.515625 70.515625 
L 53.515625 60.890625 
Q 47.90625 63.578125 42.921875 64.890625 
Q 37.9375 66.21875 33.296875 66.21875 
Q 25.25 66.21875 20.875 63.09375 
Q 16.5 59.96875 16.5 54.203125 
Q 16.5 49.359375 19.40625 46.890625 
Q 22.3125 44.4375 30.421875 42.921875 
L 36.375 41.703125 
Q 47.40625 39.59375 52.65625 34.296875 
Q 57.90625 29 57.90625 20.125 
Q 57.90625 9.515625 50.796875 4.046875 
Q 43.703125 -1.421875 29.984375 -1.421875 
Q 24.8125 -1.421875 18.96875 -0.25 
Q 13.140625 0.921875 6.890625 3.21875 
L 6.890625 13.375 
Q 12.890625 10.015625 18.65625 8.296875 
Q 24.421875 6.59375 29.984375 6.59375 
Q 38.421875 6.59375 43.015625 9.90625 
Q 47.609375 13.234375 47.609375 19.390625 
Q 47.609375 24.75 44.3125 27.78125 
Q 41.015625 30.8125 33.5 32.328125 
L 27.484375 33.5 
Q 16.453125 35.6875 11.515625 40.375 
Q 6.59375 45.0625 6.59375 53.421875 
Q 6.59375 63.09375 13.40625 68.65625 
Q 20.21875 74.21875 32.171875 74.21875 
Q 37.3125 74.21875 42.625 73.28125 
Q 47.953125 72.359375 53.515625 70.515625 
z
" id="DejaVuSans-83"/>
       <path d="M 9.8125 72.90625 
L 55.90625 72.90625 
L 55.90625 64.59375 
L 19.671875 64.59375 
L 19.671875 43.015625 
L 54.390625 43.015625 
L 54.390625 34.71875 
L 19.671875 34.71875 
L 19.671875 8.296875 
L 56.78125 8.296875 
L 56.78125 0 
L 9.8125 0 
z
" id="DejaVuSans-69"/>
       <path id="DejaVuSans-32"/>
       <path d="M 9.421875 75.984375 
L 18.40625 75.984375 
L 18.40625 0 
L 9.421875 0 
z
" id="DejaVuSans-108"/>
      </defs>
      <use xlink:href="#DejaVuSans-82"/>
      <use x="69.482422" xlink:href="#DejaVuSans-77"/>
      <use x="155.761719" xlink:href="#DejaVuSans-83"/>
      <use x="219.238281" xlink:href="#DejaVuSans-69"/>
      <use x="282.421875" xlink:href="#DejaVuSans-32"/>
      <use x="314.208984" xlink:href="#DejaVuSans-108"/>
      <use x="341.992188" xlink:href="#DejaVuSans-111"/>
      <use x="403.173828" xlink:href="#DejaVuSans-115"/>
      <use x="455.273438" xlink:href="#DejaVuSans-115"/>
     </g>
    </g>
   </g>
   <g id="line2d_17">
    <path clip-path="url(#pdcd9054de1)" d="M 49.458807 205.334411 
L 49.611065 207.576639 
L 49.763323 173.901358 
L 49.915581 204.029342 
L 50.067839 207.376187 
L 50.220097 207.131235 
L 50.372355 205.437075 
L 50.524612 206.553809 
L 50.67687 142.156722 
L 50.829128 173.84936 
L 50.981386 170.209299 
L 51.133644 171.882375 
L 51.285902 139.044308 
L 51.43816 175.539031 
L 51.590418 170.893097 
L 51.742676 205.472952 
L 51.894934 176.646206 
L 52.047192 205.568914 
L 52.19945 79.99155 
L 52.351708 175.663969 
L 52.503966 106.32059 
L 52.656224 173.836889 
L 52.808482 110.209996 
L 52.96074 205.620894 
L 53.112998 172.185457 
L 53.265255 172.948084 
L 53.417513 142.437037 
L 53.722029 204.884431 
L 53.874287 171.63449 
L 54.178803 175.051791 
L 54.331061 204.173654 
L 54.483319 172.901298 
L 54.635577 110.868154 
L 54.940093 203.810778 
L 55.092351 49.319906 
L 55.396867 206.830042 
L 55.549125 83.431835 
L 55.701383 172.008549 
L 55.853641 175.221011 
L 56.005899 207.498658 
L 56.158156 202.936519 
L 56.310414 142.853609 
L 56.61493 205.55703 
L 56.767188 174.817825 
L 56.919446 174.120028 
L 57.071704 176.356197 
L 57.37622 172.634799 
L 57.528478 206.252797 
L 57.680736 170.710716 
L 57.832994 173.637559 
L 57.985252 204.488498 
L 58.13751 204.641401 
L 58.289768 175.746543 
L 58.442026 204.152069 
L 58.594284 207.113065 
L 58.746542 175.917813 
L 58.8988 203.772565 
L 59.051057 202.679164 
L 59.203315 175.801739 
L 59.355573 172.125999 
L 59.507831 172.009905 
L 59.660089 205.359186 
L 59.812347 141.356048 
L 59.964605 202.662386 
L 60.116863 206.834147 
L 60.269121 172.18705 
L 60.421379 177.453167 
L 60.573637 138.751691 
L 60.725895 175.129321 
L 60.878153 172.15846 
L 61.030411 207.424551 
L 61.182669 209.072545 
L 61.334927 205.249385 
L 61.487185 79.358086 
L 61.639443 204.877065 
L 61.791701 202.057582 
L 61.943958 146.407705 
L 62.096216 207.158112 
L 62.248474 205.661524 
L 62.400732 173.177223 
L 62.55299 17.083636 
L 62.705248 174.584305 
L 62.857506 206.486015 
L 63.009764 201.734139 
L 63.162022 172.914415 
L 63.31428 206.171215 
L 63.466538 202.781102 
L 63.618796 204.885303 
L 63.771054 202.013268 
L 63.923312 203.18142 
L 64.07557 144.413965 
L 64.227828 203.211428 
L 64.380086 142.357477 
L 64.532344 206.454083 
L 64.684602 207.158097 
L 64.836859 174.085846 
L 64.989117 207.700984 
L 65.141375 172.88077 
L 65.293633 202.859762 
L 65.445891 203.428835 
L 65.598149 203.519113 
L 65.750407 204.044973 
L 65.902665 207.669449 
L 66.054923 141.560502 
L 66.207181 175.560226 
L 66.359439 174.694059 
L 66.511697 207.396128 
L 66.663955 171.840119 
L 66.816213 205.668253 
L 66.968471 206.448827 
L 67.120729 145.082507 
L 67.272987 202.512917 
L 67.425245 209.358088 
L 67.577503 204.205323 
L 67.72976 206.021541 
L 67.882018 141.199713 
L 68.186534 204.652481 
L 68.338792 172.110575 
L 68.49105 204.56526 
L 68.643308 204.42327 
L 68.795566 206.582755 
L 68.947824 175.109487 
L 69.100082 173.070787 
L 69.25234 203.974834 
L 69.404598 138.823844 
L 69.556856 205.722863 
L 69.709114 202.102477 
L 69.861372 172.579783 
L 70.01363 173.878362 
L 70.165888 174.066397 
L 70.318146 175.464864 
L 70.470404 171.767906 
L 70.622661 201.974096 
L 70.927177 208.604094 
L 71.079435 206.767111 
L 71.231693 210.531338 
L 71.383951 143.988911 
L 71.536209 203.50033 
L 71.688467 173.412369 
L 71.840725 206.038188 
L 71.992983 172.63215 
L 72.145241 203.334051 
L 72.297499 173.462898 
L 72.449757 173.347281 
L 72.602015 204.272642 
L 72.906531 145.830881 
L 73.058789 207.446531 
L 73.211047 175.067665 
L 73.363305 171.59532 
L 73.515562 177.504058 
L 73.820078 174.138895 
L 73.972336 207.657105 
L 74.124594 105.067079 
L 74.276852 176.494781 
L 74.42911 145.641643 
L 74.581368 174.835769 
L 74.733626 107.729915 
L 75.038142 203.259131 
L 75.1904 142.36303 
L 75.342658 142.944492 
L 75.494916 202.260404 
L 75.799432 145.952798 
L 75.95169 208.340341 
L 76.103948 176.029566 
L 76.256206 173.931187 
L 76.408463 205.386668 
L 76.560721 208.671883 
L 76.712979 146.027021 
L 76.865237 173.596009 
L 77.017495 173.245516 
L 77.169753 207.224685 
L 77.322011 171.127701 
L 77.474269 205.078309 
L 77.626527 172.421802 
L 77.778785 172.219844 
L 77.931043 204.312947 
L 78.083301 208.186859 
L 78.235559 204.416956 
L 78.387817 171.982708 
L 78.540075 208.257734 
L 78.692333 205.491172 
L 78.844591 175.719595 
L 78.996849 110.985046 
L 79.149107 174.795917 
L 79.301364 176.65029 
L 79.453622 142.62784 
L 79.60588 175.213371 
L 79.758138 176.068331 
L 79.910396 143.80021 
L 80.062654 176.898072 
L 80.214912 178.761565 
L 80.36717 174.491475 
L 80.519428 175.721027 
L 80.671686 115.80632 
L 80.823944 206.3654 
L 80.976202 173.121714 
L 81.12846 176.534971 
L 81.280718 145.256842 
L 81.585234 204.724132 
L 81.737492 207.300129 
L 82.042008 143.798846 
L 82.194265 200.723011 
L 82.346523 205.420332 
L 82.498781 176.253521 
L 82.651039 113.439921 
L 82.803297 175.788883 
L 82.955555 176.436905 
L 83.107813 207.325855 
L 83.260071 209.630985 
L 83.412329 209.641992 
L 83.564587 177.360173 
L 83.716845 175.360807 
L 83.869103 202.744973 
L 84.021361 177.843188 
L 84.173619 204.626415 
L 84.478135 146.501967 
L 84.630393 176.254122 
L 84.782651 178.215767 
L 84.934909 147.033112 
L 85.087166 149.607737 
L 85.239424 148.157998 
L 85.54394 206.177174 
L 85.696198 205.289441 
L 85.848456 124.942079 
L 86.152972 176.729879 
L 86.30523 181.522403 
L 86.457488 126.172927 
L 86.609746 205.596441 
L 86.914262 208.364925 
L 87.06652 205.29157 
L 87.218778 177.647514 
L 87.371036 180.1882 
L 87.523294 206.158535 
L 87.675552 155.840667 
L 87.980067 206.414878 
L 88.132325 203.945718 
L 88.284583 155.504971 
L 88.436841 203.37784 
L 88.589099 207.565284 
L 88.741357 181.94249 
L 88.893615 133.294666 
L 89.045873 205.71001 
L 89.198131 134.095163 
L 89.350389 157.149871 
L 89.502647 111.616199 
L 89.654905 138.179971 
L 89.807163 205.053839 
L 89.959421 201.751409 
L 90.263937 204.964891 
L 90.416195 181.11632 
L 90.568453 201.552721 
L 90.72071 205.168323 
L 90.872968 180.308223 
L 91.025226 207.96867 
L 91.177484 203.44242 
L 91.482 153.679729 
L 91.634258 207.303461 
L 91.786516 207.757562 
L 91.938774 184.558563 
L 92.091032 201.996196 
L 92.24329 184.584914 
L 92.395548 185.961791 
L 92.547806 181.468515 
L 92.700064 203.434765 
L 92.852322 201.785263 
L 93.156838 205.269419 
L 93.309096 143.040231 
L 93.461354 205.748897 
L 93.613611 206.41876 
L 93.765869 185.255295 
L 93.918127 182.524947 
L 94.070385 205.360369 
L 94.222643 205.503336 
L 94.374901 177.47079 
L 94.527159 183.537241 
L 94.679417 204.691881 
L 94.831675 160.335831 
L 94.983933 205.741505 
L 95.288449 160.3476 
L 95.440707 204.201629 
L 95.592965 182.158885 
L 95.745223 180.57837 
L 95.897481 204.253286 
L 96.049739 183.41122 
L 96.201997 183.995828 
L 96.354255 204.833544 
L 96.506512 199.058124 
L 96.65877 204.764644 
L 96.811028 181.191908 
L 96.963286 206.17295 
L 97.115544 205.833261 
L 97.267802 181.154423 
L 97.42006 203.611176 
L 97.572318 205.961642 
L 97.724576 162.036349 
L 97.876834 203.967346 
L 98.029092 187.677171 
L 98.18135 183.689235 
L 98.333608 205.976166 
L 98.485866 183.353094 
L 98.638124 183.647894 
L 98.790382 185.78204 
L 98.94264 185.642963 
L 99.094898 188.244214 
L 99.247156 183.542706 
L 99.399413 207.254866 
L 99.551671 205.877161 
L 99.856187 165.223713 
L 100.008445 205.95613 
L 100.160703 166.943872 
L 100.312961 203.093994 
L 100.465219 188.353413 
L 100.769735 207.775622 
L 100.921993 186.629988 
L 101.074251 182.275456 
L 101.226509 184.704282 
L 101.378767 123.547544 
L 101.531025 181.962227 
L 101.835541 206.055311 
L 101.987799 209.231687 
L 102.140057 203.878592 
L 102.292314 165.28677 
L 102.444572 204.378094 
L 102.59683 206.101269 
L 102.749088 190.015571 
L 103.053604 204.470104 
L 103.205862 183.923382 
L 103.35812 185.57368 
L 103.510378 165.083756 
L 103.814894 206.156631 
L 103.967152 205.788761 
L 104.11941 182.649479 
L 104.271668 202.99706 
L 104.576184 165.582271 
L 104.728442 207.000702 
L 104.8807 206.511449 
L 105.032958 204.526889 
L 105.185215 207.967613 
L 105.337473 188.405273 
L 105.489731 205.339416 
L 105.641989 168.259809 
L 105.794247 185.611896 
L 105.946505 165.847772 
L 106.098763 181.591591 
L 106.251021 172.03199 
L 106.403279 186.597786 
L 106.555537 186.390441 
L 106.707795 187.125004 
L 107.012311 183.227262 
L 107.164569 206.480493 
L 107.316827 169.680939 
L 107.469085 205.599268 
L 107.621343 203.823797 
L 107.773601 188.25319 
L 107.925859 205.176844 
L 108.078116 202.626363 
L 108.382632 149.320272 
L 108.53489 207.292203 
L 108.687148 203.02045 
L 108.839406 203.289929 
L 108.991664 204.191345 
L 109.143922 203.458283 
L 109.29618 190.441925 
L 109.448438 203.532916 
L 109.600696 203.9715 
L 109.752954 187.886259 
L 109.905212 185.069518 
L 110.05747 166.915122 
L 110.209728 208.174247 
L 110.361986 206.513831 
L 110.514244 173.380437 
L 110.81876 204.796281 
L 110.971017 203.705401 
L 111.123275 205.629785 
L 111.427791 170.966899 
L 111.580049 205.253741 
L 111.732307 186.655379 
L 111.884565 189.385391 
L 112.189081 204.296375 
L 112.493597 164.747443 
L 112.645855 138.653978 
L 112.798113 191.53462 
L 112.950371 190.058944 
L 113.102629 172.391098 
L 113.559403 208.628944 
L 113.711661 206.083991 
L 113.863918 200.828728 
L 114.168434 186.303915 
L 114.320692 187.886891 
L 114.47295 202.156846 
L 114.625208 188.333641 
L 114.777466 207.493147 
L 114.929724 173.504303 
L 115.23424 192.358542 
L 115.386498 175.643156 
L 115.538756 199.828688 
L 115.843272 206.366916 
L 115.99553 204.979087 
L 116.147788 205.61633 
L 116.300046 202.146478 
L 116.452304 205.756595 
L 116.604562 187.894573 
L 116.909077 206.677771 
L 117.061335 172.749541 
L 117.213593 202.472382 
L 117.365851 206.541823 
L 117.518109 204.563467 
L 117.670367 186.4865 
L 117.822625 191.294679 
L 118.127141 187.548337 
L 118.279399 204.15166 
L 118.431657 201.012089 
L 118.583915 189.336335 
L 118.736173 203.801902 
L 118.888431 204.862039 
L 119.040689 189.607485 
L 119.192947 204.14667 
L 119.345205 186.05059 
L 119.497463 209.270336 
L 119.64972 205.719266 
L 119.801978 206.129935 
L 119.954236 207.694371 
L 120.106494 204.071583 
L 120.258752 206.07706 
L 120.41101 202.72033 
L 120.563268 175.069519 
L 120.867784 191.608394 
L 121.020042 204.771589 
L 121.1723 205.084348 
L 121.324558 205.994608 
L 121.476816 202.335953 
L 121.629074 204.659388 
L 121.781332 188.781035 
L 122.085848 208.281511 
L 122.390364 158.613137 
L 122.542621 185.570605 
L 122.694879 191.927058 
L 122.847137 191.721346 
L 122.999395 187.977869 
L 123.151653 193.359016 
L 123.456169 193.024482 
L 123.608427 208.301457 
L 123.760685 181.729353 
L 123.912943 178.609379 
L 124.217459 193.296952 
L 124.369717 192.092306 
L 124.521975 204.015954 
L 124.674233 203.158208 
L 124.826491 196.45778 
L 124.978749 198.303303 
L 125.131007 174.414639 
L 125.283265 191.31529 
L 125.58778 193.600228 
L 125.740038 209.040993 
L 125.892296 147.859065 
L 126.044554 190.821652 
L 126.196812 195.261638 
L 126.34907 175.387992 
L 126.501328 187.029689 
L 126.653586 180.111658 
L 126.805844 190.802779 
L 126.958102 181.727748 
L 127.11036 179.73367 
L 127.262618 202.05055 
L 127.414876 203.955096 
L 127.567134 196.153462 
L 127.719392 163.977228 
L 128.023908 199.65608 
L 128.328423 186.342264 
L 128.480681 202.494749 
L 128.632939 177.321248 
L 128.785197 204.607586 
L 128.937455 179.311834 
L 129.089713 208.606928 
L 129.241971 149.263126 
L 129.394229 204.803415 
L 129.546487 175.774871 
L 129.851003 203.04921 
L 130.003261 205.616616 
L 130.155519 189.053465 
L 130.307777 209.328278 
L 130.460035 156.232008 
L 130.612293 197.378588 
L 130.764551 192.737808 
L 130.916809 175.221834 
L 131.069066 208.274444 
L 131.221324 207.555537 
L 131.373582 205.363237 
L 131.52584 172.16291 
L 131.678098 201.134747 
L 131.830356 185.822719 
L 131.982614 197.163927 
L 132.134872 189.21848 
L 132.28713 193.225846 
L 132.439388 204.286426 
L 132.591646 202.395196 
L 132.743904 193.815949 
L 133.04842 206.449714 
L 133.200678 183.171612 
L 133.352936 195.466054 
L 133.505194 164.135923 
L 133.657452 173.703758 
L 133.961967 207.84194 
L 134.114225 190.63154 
L 134.266483 193.431279 
L 134.418741 198.458387 
L 134.570999 209.827807 
L 134.723257 203.610357 
L 134.875515 192.026354 
L 135.027773 202.407878 
L 135.180031 193.937611 
L 135.332289 179.019318 
L 135.484547 202.730126 
L 135.636805 200.541135 
L 135.789063 204.999991 
L 135.941321 190.088025 
L 136.093579 202.156817 
L 136.245837 179.702553 
L 136.398095 202.017286 
L 136.550353 194.94621 
L 136.702611 182.442778 
L 137.007126 206.933996 
L 137.159384 208.520227 
L 137.311642 193.560123 
L 137.4639 208.316857 
L 137.920674 169.589522 
L 138.072932 198.360083 
L 138.377448 184.509651 
L 138.529706 206.277032 
L 138.834222 183.481507 
L 139.138738 207.379733 
L 139.290996 188.619674 
L 139.443254 203.33511 
L 139.595512 203.449615 
L 139.747769 176.713592 
L 139.900027 182.527378 
L 140.052285 198.967391 
L 140.204543 189.215141 
L 140.356801 205.595241 
L 140.509059 209.712641 
L 140.661317 200.442058 
L 140.813575 198.170162 
L 140.965833 179.249512 
L 141.118091 204.210056 
L 141.422607 186.524754 
L 141.574865 193.049811 
L 141.727123 183.545932 
L 141.879381 198.172531 
L 142.031639 186.621879 
L 142.183897 204.973041 
L 142.488413 171.949785 
L 142.792928 208.136086 
L 143.097444 188.123738 
L 143.249702 197.231201 
L 143.40196 189.199348 
L 143.554218 199.886597 
L 143.706476 195.521874 
L 143.858734 197.7267 
L 144.010992 183.405414 
L 144.16325 206.348272 
L 144.315508 197.984912 
L 144.467766 197.251809 
L 144.620024 208.527304 
L 144.772282 189.270847 
L 144.92454 194.487878 
L 145.076798 205.246847 
L 145.229056 189.799739 
L 145.381314 190.794956 
L 145.685829 200.539063 
L 145.838087 192.107423 
L 145.990345 207.883095 
L 146.142603 191.137186 
L 146.294861 194.725114 
L 146.447119 204.413581 
L 146.599377 202.044834 
L 146.751635 159.553543 
L 146.903893 204.537271 
L 147.056151 202.67989 
L 147.208409 206.415819 
L 147.360667 180.473791 
L 147.512925 208.500461 
L 147.817441 195.45727 
L 147.969699 208.984625 
L 148.121957 194.507824 
L 148.274215 207.931517 
L 148.426472 179.43865 
L 148.57873 200.822814 
L 148.730988 188.142035 
L 148.883246 201.078861 
L 149.035504 189.083075 
L 149.187762 207.054633 
L 149.34002 209.310568 
L 149.492278 201.304108 
L 149.644536 184.971098 
L 149.796794 205.904537 
L 149.949052 186.413328 
L 150.10131 207.180569 
L 150.558084 180.610735 
L 150.710342 179.556437 
L 151.014858 194.993246 
L 151.167116 190.221991 
L 151.471631 205.686633 
L 151.623889 179.668611 
L 151.928405 198.794793 
L 152.080663 198.468423 
L 152.232921 195.97254 
L 152.385179 204.958382 
L 152.537437 205.497794 
L 152.689695 204.432656 
L 152.841953 197.885127 
L 152.994211 176.231472 
L 153.298727 198.37725 
L 153.450985 175.949673 
L 153.603243 196.109593 
L 153.755501 196.079275 
L 153.907759 202.624651 
L 154.212274 184.221383 
L 154.364532 194.964988 
L 154.51679 174.324972 
L 154.669048 203.534634 
L 154.821306 192.312597 
L 154.973564 208.838367 
L 155.125822 205.895499 
L 155.27808 206.213609 
L 155.582596 196.523715 
L 155.734854 203.70171 
L 155.887112 186.111362 
L 156.496144 207.688677 
L 156.648402 201.947537 
L 156.80066 186.777843 
L 156.952918 208.104478 
L 157.105175 206.285074 
L 157.257433 196.396693 
L 157.409691 203.850831 
L 157.561949 204.944199 
L 157.714207 196.601103 
L 157.866465 196.645289 
L 158.018723 183.95159 
L 158.170981 182.2663 
L 158.475497 205.034889 
L 158.627755 193.885583 
L 158.932271 210.937835 
L 159.084529 193.228487 
L 159.389045 200.464885 
L 159.541303 177.79875 
L 159.845819 203.72101 
L 159.998076 205.276235 
L 160.150334 189.925903 
L 160.302592 203.103058 
L 160.45485 199.6165 
L 160.607108 183.897954 
L 160.759366 205.850801 
L 161.063882 196.252315 
L 161.21614 207.980222 
L 161.368398 207.744316 
L 161.520656 205.827497 
L 161.672914 195.133604 
L 161.97743 203.196483 
L 162.129688 201.693555 
L 162.434204 206.069697 
L 162.586462 200.719869 
L 162.73872 185.915043 
L 162.890977 207.167653 
L 163.043235 195.596813 
L 163.195493 206.421625 
L 163.347751 189.370781 
L 163.652267 196.07137 
L 163.804525 208.003804 
L 163.956783 195.764156 
L 164.109041 205.631898 
L 164.261299 191.446371 
L 164.413557 207.760676 
L 164.565815 198.180811 
L 164.718073 204.035513 
L 165.022589 169.257694 
L 165.174847 198.311972 
L 165.479363 210.92511 
L 165.63162 193.229747 
L 165.783878 207.720741 
L 165.936136 205.406519 
L 166.088394 196.99246 
L 166.240652 203.705737 
L 166.39291 188.587931 
L 166.545168 192.689005 
L 166.697426 205.868747 
L 166.849684 200.841117 
L 167.001942 207.392816 
L 167.306458 194.89642 
L 167.763232 205.75567 
L 167.91549 206.578115 
L 168.067748 191.660129 
L 168.220006 207.205519 
L 168.372264 208.697202 
L 168.524521 197.400308 
L 168.676779 203.308528 
L 168.829037 195.066878 
L 168.981295 194.167089 
L 169.133553 203.255779 
L 169.285811 202.557087 
L 169.438069 208.004509 
L 169.590327 195.912226 
L 169.742585 195.796476 
L 169.894843 192.29309 
L 170.047101 198.3254 
L 170.199359 198.528179 
L 170.351617 195.544635 
L 170.503875 176.74322 
L 170.656133 197.408141 
L 170.808391 193.419051 
L 170.960649 206.464589 
L 171.112907 203.821057 
L 171.265165 193.736977 
L 171.417422 203.582979 
L 171.721938 181.871396 
L 171.874196 198.995565 
L 172.178712 202.632697 
L 172.33097 191.984172 
L 172.483228 194.926107 
L 172.635486 187.151385 
L 172.940002 203.260365 
L 173.09226 198.740503 
L 173.396776 205.439334 
L 173.549034 186.986502 
L 173.85355 209.846785 
L 174.158066 190.178228 
L 174.310323 195.318963 
L 174.462581 192.260493 
L 174.767097 202.445235 
L 174.919355 194.603922 
L 175.071613 196.120692 
L 175.223871 200.300111 
L 175.376129 198.302334 
L 175.680645 204.648155 
L 175.832903 194.178747 
L 175.985161 207.603281 
L 176.137419 200.928297 
L 176.289677 207.036464 
L 176.441935 202.139834 
L 176.594193 192.564497 
L 176.898709 204.171351 
L 177.050967 194.758442 
L 177.355482 207.336306 
L 177.50774 210.229423 
L 177.659998 209.290216 
L 177.812256 195.581062 
L 178.116772 198.736902 
L 178.26903 205.435611 
L 178.421288 196.167827 
L 178.573546 207.412118 
L 178.725804 202.185485 
L 178.878062 207.1772 
L 179.03032 205.52796 
L 179.182578 207.498497 
L 179.334836 199.357101 
L 179.487094 205.085683 
L 179.639352 204.966379 
L 179.79161 202.319391 
L 179.943868 201.711816 
L 180.096125 208.514301 
L 180.248383 201.907137 
L 180.400641 203.027082 
L 180.705157 188.208288 
L 180.857415 207.357255 
L 181.009673 200.711741 
L 181.161931 209.909583 
L 181.314189 195.466936 
L 181.770963 208.158348 
L 181.923221 208.348222 
L 182.075479 197.895014 
L 182.227737 195.968399 
L 182.379995 210.038263 
L 182.532253 206.630706 
L 182.684511 209.855313 
L 182.836769 200.528097 
L 182.989026 203.480789 
L 183.141284 191.004029 
L 183.293542 194.845973 
L 183.4458 201.509864 
L 183.598058 193.14192 
L 183.902574 200.990272 
L 184.054832 198.085225 
L 184.20709 207.951194 
L 184.511606 200.074249 
L 184.663864 200.120702 
L 184.816122 204.093115 
L 184.96838 196.334916 
L 185.120638 207.416263 
L 185.272896 207.897262 
L 185.425154 205.478786 
L 185.577412 197.391428 
L 185.72967 200.640712 
L 185.881927 208.830286 
L 186.034185 197.030751 
L 186.186443 207.228524 
L 186.338701 199.010253 
L 186.490959 209.713308 
L 186.643217 191.902221 
L 186.795475 198.276891 
L 186.947733 199.581301 
L 187.099991 208.930919 
L 187.404507 203.183757 
L 187.556765 204.160262 
L 187.709023 197.567074 
L 187.861281 206.072716 
L 188.013539 200.373863 
L 188.165797 202.4822 
L 188.318055 210.784962 
L 188.622571 196.217795 
L 188.774828 207.297093 
L 188.927086 181.127639 
L 189.231602 202.510446 
L 189.38386 209.004209 
L 189.536118 202.725535 
L 189.688376 205.905155 
L 189.840634 189.965163 
L 189.992892 208.484991 
L 190.14515 206.524583 
L 190.297408 202.824359 
L 190.449666 196.243238 
L 190.754182 205.457164 
L 190.90644 193.149201 
L 191.058698 208.889513 
L 191.210956 197.121316 
L 191.363214 208.262038 
L 191.515472 204.013499 
L 191.819987 208.647361 
L 191.972245 208.186237 
L 192.429019 198.970142 
L 192.581277 209.487047 
L 192.733535 200.110367 
L 192.885793 199.610127 
L 193.038051 194.349065 
L 193.342567 202.549012 
L 193.494825 198.713587 
L 193.647083 204.72435 
L 193.799341 204.489307 
L 193.951599 198.775059 
L 194.103857 204.716595 
L 194.256115 200.006226 
L 194.408373 205.142821 
L 194.56063 204.807361 
L 194.712888 202.157781 
L 194.865146 195.998278 
L 195.169662 210.530771 
L 195.32192 198.320537 
L 195.474178 198.921233 
L 195.626436 205.67058 
L 195.930952 207.763192 
L 196.08321 198.961463 
L 196.235468 206.293965 
L 196.387726 203.317101 
L 196.539984 208.14443 
L 196.692242 209.228755 
L 196.8445 206.165543 
L 196.996758 190.546549 
L 197.149016 203.065966 
L 197.301274 182.785367 
L 197.605789 202.836128 
L 197.758047 206.348757 
L 197.910305 205.032883 
L 198.062563 201.629344 
L 198.367079 207.776335 
L 198.519337 203.034448 
L 198.671595 208.543795 
L 198.823853 202.525235 
L 198.976111 209.338709 
L 199.128369 210.645363 
L 199.280627 209.791475 
L 199.432885 201.401387 
L 199.585143 210.149677 
L 199.737401 202.037165 
L 199.889659 202.339945 
L 200.041917 201.671871 
L 200.194175 196.08234 
L 200.346432 203.496886 
L 200.49869 205.110766 
L 200.650948 208.462793 
L 200.803206 203.756047 
L 200.955464 203.71663 
L 201.107722 195.242259 
L 201.412238 211.717854 
L 201.564496 203.903325 
L 201.716754 206.642027 
L 201.869012 204.77052 
L 202.02127 206.270877 
L 202.173528 205.952862 
L 202.325786 198.240241 
L 202.478044 200.528851 
L 202.630302 210.125897 
L 202.78256 203.40375 
L 202.934818 205.684953 
L 203.087075 196.948218 
L 203.239333 207.190872 
L 203.543849 199.33695 
L 203.696107 211.134092 
L 203.848365 195.551456 
L 204.000623 203.521087 
L 204.152881 203.624747 
L 204.305139 200.148524 
L 204.457397 210.820873 
L 204.609655 198.025627 
L 204.761913 201.940002 
L 204.914171 199.029066 
L 205.066429 200.520096 
L 205.218687 209.669697 
L 205.370945 204.265364 
L 205.523203 204.938887 
L 205.675461 204.964734 
L 205.827719 208.418209 
L 205.979976 207.889566 
L 206.132234 206.63286 
L 206.284492 209.201142 
L 206.589008 198.839286 
L 207.045782 207.774127 
L 207.350298 199.954338 
L 207.654814 209.115036 
L 207.807072 198.065552 
L 207.95933 207.659095 
L 208.263846 209.045609 
L 208.416104 204.80754 
L 208.72062 206.749465 
L 208.872877 204.815236 
L 209.025135 209.905768 
L 209.177393 208.793415 
L 209.329651 195.730222 
L 209.481909 207.082542 
L 209.786425 208.791461 
L 210.090941 205.33062 
L 210.243199 199.237099 
L 210.395457 206.955975 
L 210.547715 202.195788 
L 210.699973 209.7144 
L 211.004489 201.745934 
L 211.156747 207.996623 
L 211.309005 207.422999 
L 211.461263 202.088007 
L 211.765778 209.939644 
L 211.918036 202.634982 
L 212.070294 209.410943 
L 212.222552 195.078484 
L 212.37481 208.470292 
L 212.527068 206.687406 
L 212.679326 197.2259 
L 212.831584 208.358377 
L 212.983842 202.34594 
L 213.1361 201.619674 
L 213.288358 209.190142 
L 213.440616 190.323473 
L 213.745132 206.907839 
L 213.89739 206.278399 
L 214.049648 208.398353 
L 214.201906 207.478533 
L 214.354164 205.218631 
L 214.506422 196.883099 
L 214.658679 209.612428 
L 214.810937 209.528208 
L 215.115453 203.083787 
L 215.267711 196.406646 
L 215.572227 209.24918 
L 215.724485 197.718381 
L 216.029001 207.675128 
L 216.181259 207.613728 
L 216.333517 197.787617 
L 216.485775 198.179814 
L 216.638033 210.1775 
L 216.790291 204.003039 
L 216.942549 202.810615 
L 217.094807 193.846312 
L 217.247065 206.46555 
L 217.55158 202.985817 
L 217.856096 209.115027 
L 218.008354 203.843418 
L 218.160612 203.488393 
L 218.31287 204.354551 
L 218.465128 207.532616 
L 218.617386 202.680636 
L 218.769644 207.446919 
L 218.921902 202.078126 
L 219.07416 207.761435 
L 219.226418 201.554007 
L 219.683192 208.94114 
L 219.83545 207.316449 
L 219.987708 204.33186 
L 220.139966 204.69917 
L 220.292224 202.692671 
L 220.444481 202.368269 
L 220.596739 205.408335 
L 220.748997 200.202316 
L 220.901255 199.349487 
L 221.053513 208.278057 
L 221.205771 208.301589 
L 221.358029 201.015856 
L 221.510287 209.76099 
L 221.814803 193.79428 
L 221.967061 205.326177 
L 222.119319 203.425215 
L 222.271577 203.623807 
L 222.423835 205.742055 
L 222.576093 187.511031 
L 222.728351 206.936875 
L 223.032867 204.319253 
L 223.185125 205.440494 
L 223.48964 209.216614 
L 223.641898 204.551534 
L 223.794156 204.989291 
L 224.098672 209.515373 
L 224.25093 209.411829 
L 224.403188 199.746552 
L 224.555446 201.872944 
L 224.707704 207.357849 
L 224.859962 203.871459 
L 225.316736 208.363426 
L 225.468994 211.381998 
L 225.621252 209.246065 
L 225.77351 203.881869 
L 226.078026 210.275881 
L 226.230283 200.67034 
L 226.382541 205.248974 
L 226.534799 193.251986 
L 226.687057 207.11102 
L 226.839315 207.848584 
L 226.991573 205.888617 
L 227.143831 205.91659 
L 227.296089 210.754153 
L 227.448347 205.208193 
L 227.600605 206.52764 
L 227.752863 201.724521 
L 227.905121 204.621052 
L 228.057379 203.265404 
L 228.209637 206.624476 
L 228.361895 198.690622 
L 228.514153 207.590916 
L 228.666411 204.44639 
L 228.818669 208.871783 
L 228.970927 207.919304 
L 229.123184 201.612843 
L 229.4277 210.454439 
L 229.579958 210.259892 
L 229.884474 199.305669 
L 230.036732 206.409945 
L 230.18899 203.427643 
L 230.341248 208.936959 
L 230.645764 206.213219 
L 230.798022 210.52655 
L 230.95028 211.083761 
L 231.102538 200.173885 
L 231.254796 203.800585 
L 231.407054 200.41899 
L 231.559312 203.937542 
L 231.71157 201.301084 
L 231.863828 200.614424 
L 232.016085 197.885103 
L 232.320601 205.11082 
L 232.472859 197.536124 
L 232.625117 206.340033 
L 232.777375 205.681993 
L 232.929633 202.096321 
L 233.081891 205.19868 
L 233.234149 201.099937 
L 233.386407 210.427871 
L 233.690923 204.202215 
L 233.843181 208.943516 
L 234.147697 203.500462 
L 234.299955 209.765805 
L 234.452213 206.679032 
L 234.604471 207.588486 
L 234.756729 210.09806 
L 234.908986 207.969899 
L 235.061244 210.145875 
L 235.213502 204.773121 
L 235.36576 207.558949 
L 235.518018 205.445181 
L 235.670276 205.575845 
L 235.822534 208.528139 
L 236.12705 202.966581 
L 236.279308 211.373534 
L 236.431566 203.487824 
L 236.736082 209.245699 
L 236.88834 208.589558 
L 237.040598 211.354878 
L 237.192856 207.099157 
L 237.345114 206.44362 
L 237.497372 207.383302 
L 237.64963 209.451812 
L 237.801887 208.096238 
L 237.954145 202.461442 
L 238.106403 201.691709 
L 238.258661 207.27039 
L 238.410919 204.934909 
L 238.563177 209.525661 
L 238.715435 206.971855 
L 238.867693 202.121049 
L 239.019951 204.01845 
L 239.172209 207.331092 
L 239.476725 200.818079 
L 239.628983 209.219887 
L 239.933499 203.356766 
L 240.085757 203.933119 
L 240.238015 208.323135 
L 240.390273 203.469609 
L 240.54253 209.755943 
L 240.694788 209.283301 
L 240.847046 204.541604 
L 240.999304 209.694455 
L 241.151562 203.955502 
L 241.30382 207.924844 
L 241.456078 205.515779 
L 241.760594 209.446919 
L 242.06511 205.132903 
L 242.217368 208.834285 
L 242.369626 206.910726 
L 242.521884 207.804445 
L 242.674142 209.418573 
L 242.8264 206.176144 
L 242.978658 207.07481 
L 243.283174 209.922529 
L 243.435431 208.861651 
L 243.587689 206.850734 
L 243.739947 206.601053 
L 243.892205 208.615699 
L 244.044463 206.181069 
L 244.196721 208.830126 
L 244.501237 209.750985 
L 244.653495 204.942718 
L 244.805753 209.329462 
L 244.958011 207.247105 
L 245.110269 207.581103 
L 245.262527 207.537902 
L 245.414785 209.589817 
L 245.567043 208.178251 
L 245.719301 209.729416 
L 245.871559 205.349969 
L 246.176075 209.039191 
L 246.328332 209.873397 
L 246.48059 205.687959 
L 246.632848 208.675981 
L 246.785106 209.068078 
L 246.937364 204.769917 
L 247.24188 209.422052 
L 247.394138 207.441951 
L 247.698654 210.897722 
L 247.850912 208.344827 
L 248.00317 208.315753 
L 248.155428 206.508565 
L 248.307686 207.807319 
L 248.459944 204.087869 
L 248.76446 209.152418 
L 248.916718 211.284786 
L 249.068976 207.860791 
L 249.221233 208.486602 
L 249.373491 207.98489 
L 249.525749 210.803129 
L 249.678007 209.40058 
L 249.830265 209.323835 
L 250.134781 212.468404 
L 250.287039 209.877974 
L 250.439297 211.07523 
L 250.591555 210.311752 
L 250.743813 208.148733 
L 250.896071 210.489524 
L 251.048329 206.651276 
L 251.200587 211.942869 
L 251.352845 208.16665 
L 251.657361 210.731571 
L 251.809619 210.071904 
L 251.961877 207.58795 
L 252.114134 209.078913 
L 252.266392 209.28337 
L 252.41865 207.575295 
L 252.723166 210.779525 
L 252.875424 206.392713 
L 253.027682 209.790609 
L 253.17994 208.493513 
L 253.332198 208.880891 
L 253.484456 206.289589 
L 253.788972 211.130324 
L 254.093488 208.111508 
L 254.245746 210.765846 
L 254.398004 209.064443 
L 254.550262 210.667293 
L 254.854778 207.038664 
L 255.007035 208.05538 
L 255.159293 210.299493 
L 255.311551 208.642098 
L 255.463809 209.745725 
L 255.616067 209.775095 
L 255.920583 210.776297 
L 256.072841 208.677214 
L 256.225099 208.332092 
L 256.377357 211.69811 
L 256.681873 209.464848 
L 256.834131 210.832991 
L 256.986389 210.830246 
L 257.138647 206.671653 
L 257.290905 207.668795 
L 257.595421 210.848215 
L 257.747679 209.035937 
L 257.899936 210.527051 
L 258.052194 210.788828 
L 258.204452 210.08875 
L 258.35671 208.370159 
L 258.661226 209.635891 
L 258.813484 209.431044 
L 258.965742 211.5012 
L 259.118 206.592101 
L 259.270258 211.426935 
L 259.422516 208.985115 
L 259.574774 208.598727 
L 259.87929 210.645744 
L 260.031548 208.725831 
L 260.336064 211.609256 
L 260.488322 208.865262 
L 260.64058 210.444085 
L 260.792837 210.798215 
L 260.945095 210.659605 
L 261.097353 210.827666 
L 261.249611 209.274171 
L 261.554127 211.24982 
L 261.706385 208.667675 
L 262.010901 209.984271 
L 262.163159 206.060009 
L 262.315417 208.913928 
L 262.467675 209.114175 
L 262.619933 211.324066 
L 262.772191 208.803405 
L 262.924449 209.017194 
L 263.076707 211.43001 
L 263.228965 210.760797 
L 263.381223 211.171824 
L 263.685738 208.430436 
L 263.990254 209.249352 
L 264.142512 210.668471 
L 264.447028 207.873317 
L 264.599286 208.226655 
L 264.751544 211.333476 
L 264.903802 209.317105 
L 265.208318 211.91358 
L 265.360576 208.817519 
L 265.512834 209.637537 
L 265.665092 208.746461 
L 265.81735 209.002249 
L 265.969608 211.439666 
L 266.121866 208.831611 
L 266.274124 210.503502 
L 266.426382 203.71876 
L 266.578639 210.254398 
L 266.883155 208.361235 
L 267.035413 206.641531 
L 267.187671 208.659453 
L 267.339929 208.058871 
L 267.644445 210.551728 
L 267.796703 204.69921 
L 267.948961 208.921736 
L 268.101219 208.140797 
L 268.253477 210.676615 
L 268.405735 210.42224 
L 268.557993 208.638007 
L 268.710251 209.514245 
L 269.014767 207.579368 
L 269.167025 207.078074 
L 269.319283 208.589279 
L 269.47154 205.01387 
L 269.623798 208.038003 
L 269.928314 209.110946 
L 270.080572 210.449607 
L 270.23283 207.479151 
L 270.385088 210.381157 
L 270.537346 208.713781 
L 270.689604 208.451444 
L 270.841862 208.973695 
L 270.99412 209.968399 
L 271.146378 209.700258 
L 271.298636 210.987372 
L 271.450894 207.092766 
L 271.75541 210.526637 
L 272.059926 206.955681 
L 272.516699 211.827178 
L 272.668957 209.411155 
L 272.821215 209.433304 
L 272.973473 210.023581 
L 273.125731 209.334945 
L 273.277989 210.04354 
L 273.430247 211.943768 
L 273.582505 212.40572 
L 273.734763 208.221779 
L 273.887021 210.855875 
L 274.039279 209.579304 
L 274.191537 206.241734 
L 274.343795 210.165745 
L 274.496053 210.558929 
L 274.800569 209.363797 
L 275.105085 210.37514 
L 275.257342 208.137117 
L 275.4096 210.245691 
L 275.561858 209.960581 
L 275.714116 207.765503 
L 276.018632 209.625282 
L 276.17089 208.907621 
L 276.323148 209.154455 
L 276.475406 211.453157 
L 276.779922 210.322871 
L 277.084438 209.865609 
L 277.236696 210.325664 
L 277.388954 211.348119 
L 277.541212 211.200164 
L 277.69347 208.889402 
L 277.845728 209.319754 
L 278.150243 211.824177 
L 278.302501 208.798409 
L 278.454759 209.908321 
L 278.607017 209.622049 
L 278.759275 210.580817 
L 278.911533 210.471556 
L 279.063791 206.892377 
L 279.216049 212.302655 
L 279.368307 209.192485 
L 279.520565 209.309486 
L 279.672823 208.219575 
L 279.825081 210.21682 
L 279.977339 208.548064 
L 280.129597 208.326306 
L 280.281855 208.765393 
L 280.434113 209.78429 
L 280.586371 209.816645 
L 280.738629 210.719137 
L 280.890886 208.94173 
L 281.043144 211.268954 
L 281.195402 210.424798 
L 281.34766 211.33472 
L 281.499918 208.793636 
L 281.652176 212.018314 
L 281.804434 210.04646 
L 281.956692 210.555201 
L 282.10895 209.178863 
L 282.261208 209.454709 
L 282.413466 209.160454 
L 282.565724 209.752568 
L 282.717982 209.74094 
L 282.87024 210.657537 
L 283.022498 209.132907 
L 283.174756 209.283869 
L 283.327014 209.122678 
L 283.63153 211.259828 
L 283.783787 209.281732 
L 283.936045 210.006154 
L 284.088303 209.931859 
L 284.240561 212.631595 
L 284.545077 208.400891 
L 284.697335 211.597939 
L 284.849593 210.310855 
L 285.001851 210.270694 
L 285.154109 211.981534 
L 285.458625 209.286064 
L 285.610883 209.384463 
L 285.915399 209.854808 
L 286.067657 211.402483 
L 286.372173 208.237605 
L 286.524431 211.540698 
L 286.676688 209.319317 
L 286.828946 209.414228 
L 286.981204 209.281378 
L 287.133462 207.833608 
L 287.28572 211.713606 
L 287.437978 210.56679 
L 287.590236 210.508864 
L 287.742494 209.425162 
L 287.894752 211.498912 
L 288.04701 208.481709 
L 288.199268 209.329881 
L 288.351526 214.07357 
L 288.656042 210.978811 
L 288.8083 212.842731 
L 288.960558 210.789816 
L 289.112816 210.739097 
L 289.265074 211.685317 
L 289.417332 210.444338 
L 289.569589 211.373776 
L 289.721847 210.445197 
L 289.874105 211.205817 
L 290.026363 207.910181 
L 290.178621 208.366728 
L 290.330879 211.707646 
L 290.483137 211.18242 
L 290.635395 208.904487 
L 290.787653 211.947659 
L 290.939911 209.531647 
L 291.092169 209.177696 
L 291.244427 210.230147 
L 291.396685 210.201593 
L 291.548943 207.150795 
L 291.701201 210.969869 
L 291.853459 210.696725 
L 292.005717 210.898783 
L 292.157975 212.262847 
L 292.310233 211.890442 
L 292.46249 208.108283 
L 292.614748 207.677506 
L 292.767006 208.023891 
L 292.919264 213.253465 
L 293.071522 211.474077 
L 293.22378 211.135391 
L 293.376038 211.800854 
L 293.528296 211.097617 
L 293.680554 209.166594 
L 293.832812 209.836041 
L 293.98507 211.804537 
L 294.137328 210.572667 
L 294.289586 211.642661 
L 294.441844 210.880085 
L 294.594102 207.159711 
L 294.898618 211.567571 
L 295.203134 211.77162 
L 295.355391 209.150594 
L 295.507649 211.565978 
L 295.659907 210.074463 
L 295.812165 210.739176 
L 295.964423 210.778524 
L 296.116681 212.712923 
L 296.421197 209.098141 
L 296.725713 211.645054 
L 297.182487 211.197481 
L 297.334745 209.522347 
L 297.487003 211.395215 
L 297.639261 211.870083 
L 297.791519 209.689208 
L 297.943777 211.16044 
L 298.096035 210.316003 
L 298.40055 211.101887 
L 298.552808 209.889652 
L 298.705066 211.971533 
L 298.857324 209.927146 
L 299.009582 212.277332 
L 299.16184 210.434404 
L 299.314098 211.493215 
L 299.466356 210.12523 
L 299.618614 211.155894 
L 299.770872 209.57472 
L 299.92313 212.03591 
L 300.075388 210.51835 
L 300.227646 211.812589 
L 300.379904 210.85368 
L 300.532162 211.479251 
L 300.836678 209.008254 
L 300.988936 212.136867 
L 301.141193 210.233195 
L 301.293451 210.615 
L 301.445709 210.207925 
L 301.597967 210.557729 
L 301.750225 212.241721 
L 301.902483 209.205778 
L 302.054741 210.647646 
L 302.206999 210.724825 
L 302.511515 211.751453 
L 302.816031 209.950023 
L 302.968289 211.979409 
L 303.120547 210.303346 
L 303.272805 211.82445 
L 303.425063 211.364661 
L 303.729579 211.518169 
L 303.881837 210.6145 
L 304.034094 211.603197 
L 304.33861 210.03746 
L 304.490868 211.55311 
L 304.643126 209.694401 
L 304.795384 212.165776 
L 305.0999 210.747231 
L 305.252158 213.165158 
L 305.556674 210.71758 
L 305.86119 211.621025 
L 306.013448 212.905069 
L 306.165706 210.761279 
L 306.317964 210.979572 
L 306.470222 208.940253 
L 306.62248 211.323686 
L 306.774738 211.930592 
L 306.926995 209.990018 
L 307.231511 211.579433 
L 307.383769 210.476829 
L 307.536027 210.880334 
L 307.688285 212.026865 
L 307.840543 210.927271 
L 307.992801 211.926755 
L 308.145059 209.981908 
L 308.297317 212.045814 
L 308.449575 212.560091 
L 308.601833 212.409745 
L 308.754091 210.097605 
L 309.058607 212.667378 
L 309.515381 209.46193 
L 309.667639 210.53263 
L 309.819896 213.090362 
L 309.972154 211.429527 
L 310.124412 212.793029 
L 310.27667 212.441317 
L 310.428928 210.642267 
L 310.581186 210.962862 
L 310.733444 212.049313 
L 311.03796 210.590426 
L 311.190218 211.638847 
L 311.342476 210.223813 
L 311.494734 213.507763 
L 311.646992 211.483513 
L 311.79925 212.047701 
L 311.951508 211.087489 
L 312.103766 211.581173 
L 312.256024 211.008977 
L 312.408282 209.671535 
L 312.712797 212.627701 
L 312.865055 212.584119 
L 313.017313 207.523054 
L 313.169571 212.522347 
L 313.321829 211.937976 
L 313.474087 212.868827 
L 313.626345 211.680645 
L 313.778603 212.619996 
L 314.083119 211.516679 
L 314.235377 211.922089 
L 314.387635 208.914441 
L 314.539893 212.027392 
L 314.692151 210.306922 
L 314.844409 210.970088 
L 314.996667 209.350222 
L 315.148925 209.8999 
L 315.301183 213.156419 
L 315.605698 212.339267 
L 315.757956 212.80375 
L 315.910214 209.289785 
L 316.21473 212.262874 
L 316.366988 211.592292 
L 316.519246 212.35038 
L 316.671504 211.893856 
L 316.97602 208.849314 
L 317.128278 210.182489 
L 317.280536 209.735762 
L 317.585052 212.845516 
L 317.73731 210.245759 
L 317.889568 212.577202 
L 318.041826 209.604427 
L 318.194084 212.445098 
L 318.346341 213.100502 
L 318.498599 212.615072 
L 318.650857 213.197048 
L 318.803115 209.931946 
L 318.955373 209.384592 
L 319.259889 212.008183 
L 319.716663 210.686888 
L 319.868921 210.440676 
L 320.021179 211.783227 
L 320.173437 211.426375 
L 320.477953 212.401184 
L 320.630211 214.24701 
L 320.782469 213.924505 
L 321.086985 210.42763 
L 321.239242 213.468718 
L 321.3915 213.871903 
L 321.543758 210.797962 
L 321.696016 211.706253 
L 321.848274 211.704839 
L 322.000532 211.280944 
L 322.15279 212.341894 
L 322.305048 207.882563 
L 322.457306 212.781674 
L 322.609564 210.763176 
L 322.761822 212.644917 
L 322.91408 212.163818 
L 323.066338 213.583514 
L 323.218596 212.558569 
L 323.370854 212.554075 
L 323.67537 211.753831 
L 323.827628 214.100283 
L 324.132143 210.240937 
L 324.284401 211.619815 
L 324.436659 211.453165 
L 324.588917 212.092433 
L 324.741175 211.82131 
L 324.893433 212.257538 
L 325.197949 210.270263 
L 325.350207 210.59546 
L 325.654723 212.636426 
L 325.806981 210.495076 
L 325.959239 211.061552 
L 326.111497 212.119116 
L 326.263755 212.232656 
L 326.568271 213.04968 
L 326.720529 211.357251 
L 326.872787 211.276124 
L 327.025044 210.30862 
L 327.177302 213.561663 
L 327.481818 210.112671 
L 327.634076 213.324191 
L 327.938592 211.299026 
L 328.09085 214.059115 
L 328.243108 211.454489 
L 328.395366 212.95178 
L 328.547624 211.151255 
L 328.699882 213.606886 
L 328.85214 212.157909 
L 329.004398 212.641861 
L 329.156656 210.471659 
L 329.308914 212.256533 
L 329.461172 211.501979 
L 329.61343 209.502991 
L 329.765688 209.92264 
L 329.917945 212.333441 
L 330.070203 210.96512 
L 330.222461 210.646532 
L 330.526977 213.767758 
L 330.831493 210.418838 
L 331.136009 213.308528 
L 331.288267 213.131622 
L 331.440525 214.137927 
L 331.745041 210.70102 
L 331.897299 211.019689 
L 332.049557 212.227093 
L 332.201815 211.393327 
L 332.354073 213.423612 
L 332.506331 212.586224 
L 332.658589 212.511073 
L 332.810846 213.30164 
L 332.963104 213.193854 
L 333.115362 207.285414 
L 333.419878 212.296173 
L 333.572136 211.894951 
L 333.724394 212.6883 
L 334.02891 211.500308 
L 334.181168 212.129212 
L 334.333426 213.761521 
L 334.485684 212.511422 
L 334.637942 213.133653 
L 334.7902 211.058491 
L 334.942458 211.238661 
L 335.246974 212.629525 
L 335.399232 212.656495 
L 335.55149 213.393031 
L 335.856005 212.165964 
L 336.008263 212.666035 
L 336.160521 213.656702 
L 336.465037 212.193804 
L 336.617295 212.415724 
L 336.769553 213.518716 
L 336.921811 211.86303 
L 337.074069 211.9214 
L 337.226327 212.367407 
L 337.378585 212.371729 
L 337.530843 211.91569 
L 337.683101 212.997672 
L 337.835359 212.506636 
L 337.987617 213.885944 
L 338.444391 211.823775 
L 338.596648 211.899084 
L 338.901164 213.731595 
L 339.053422 213.041941 
L 339.357938 213.541574 
L 339.510196 212.898516 
L 339.662454 212.940514 
L 339.814712 214.359546 
L 339.96697 212.398795 
L 340.271486 212.6229 
L 340.423744 213.215666 
L 340.576002 211.021156 
L 340.72826 210.657238 
L 340.880518 212.39034 
L 341.185034 212.819145 
L 341.337292 212.697616 
L 341.489549 212.165054 
L 341.641807 210.215452 
L 341.794065 210.760612 
L 342.098581 213.978633 
L 342.403097 211.496388 
L 342.555355 213.596391 
L 342.707613 212.406513 
L 342.859871 213.75541 
L 343.012129 213.730182 
L 343.316645 212.611761 
L 343.468903 212.351983 
L 343.621161 213.827713 
L 343.773419 212.711496 
L 344.077935 213.575904 
L 344.230193 212.910288 
L 344.38245 213.869879 
L 344.534708 212.013619 
L 344.686966 212.596753 
L 344.839224 212.326642 
L 344.991482 213.986086 
L 345.14374 211.569808 
L 345.295998 214.19486 
L 345.448256 212.357704 
L 345.600514 212.993627 
L 345.752772 212.272538 
L 345.90503 214.756364 
L 346.209546 211.175877 
L 346.514062 213.698786 
L 346.818578 210.984485 
L 346.970836 213.720718 
L 347.123094 211.910481 
L 347.275351 214.432857 
L 347.579867 212.579385 
L 347.732125 213.543845 
L 347.884383 213.661069 
L 348.036641 213.318025 
L 348.188899 213.610656 
L 348.341157 213.330007 
L 348.645673 213.528833 
L 348.950189 212.716471 
L 349.254705 213.368849 
L 349.406963 214.743333 
L 349.711479 212.328498 
L 349.863737 212.146713 
L 350.015995 213.593896 
L 350.168252 212.277418 
L 350.32051 214.316821 
L 350.472768 213.128597 
L 350.625026 212.833073 
L 350.777284 213.497119 
L 350.929542 212.391456 
L 351.0818 212.6445 
L 351.234058 214.115452 
L 351.386316 210.694807 
L 351.538574 212.824792 
L 351.690832 213.332624 
L 351.84309 212.315904 
L 351.995348 210.526718 
L 352.147606 212.508073 
L 352.299864 210.540798 
L 352.452122 212.2883 
L 352.60438 212.728108 
L 352.756638 212.11884 
L 352.908895 213.188912 
L 353.061153 211.431853 
L 353.365669 212.922402 
L 353.517927 211.049824 
L 353.670185 212.582244 
L 353.822443 212.326658 
L 353.822443 212.326658 
" style="fill:none;stroke:#1f77b4;stroke-linecap:square;stroke-width:1.5;"/>
   </g>
   <g id="patch_3">
    <path d="M 34.240625 224.64 
L 34.240625 7.2 
" style="fill:none;stroke:#000000;stroke-linecap:square;stroke-linejoin:miter;stroke-width:0.8;"/>
   </g>
   <g id="patch_4">
    <path d="M 369.040625 224.64 
L 369.040625 7.2 
" style="fill:none;stroke:#000000;stroke-linecap:square;stroke-linejoin:miter;stroke-width:0.8;"/>
   </g>
   <g id="patch_5">
    <path d="M 34.240625 224.64 
L 369.040625 224.64 
" style="fill:none;stroke:#000000;stroke-linecap:square;stroke-linejoin:miter;stroke-width:0.8;"/>
   </g>
   <g id="patch_6">
    <path d="M 34.240625 7.2 
L 369.040625 7.2 
" style="fill:none;stroke:#000000;stroke-linecap:square;stroke-linejoin:miter;stroke-width:0.8;"/>
   </g>
  </g>
 </g>
 <defs>
  <clipPath id="pdcd9054de1">
   <rect height="217.44" width="334.8" x="34.240625" y="7.2"/>
  </clipPath>
 </defs>
</svg>
