<?xml version="1.0" encoding="utf-8" standalone="no"?>
<!DOCTYPE svg PUBLIC "-//W3C//DTD SVG 1.1//EN"
  "http://www.w3.org/Graphics/SVG/1.1/DTD/svg11.dtd">
<!-- Created with matplotlib (https://matplotlib.org/) -->
<svg height="248.518125pt" version="1.1" viewBox="0 0 372.103125 248.518125" width="372.103125pt" xmlns="http://www.w3.org/2000/svg" xmlns:xlink="http://www.w3.org/1999/xlink">
 <metadata>
  <rdf:RDF xmlns:cc="http://creativecommons.org/ns#" xmlns:dc="http://purl.org/dc/elements/1.1/" xmlns:rdf="http://www.w3.org/1999/02/22-rdf-syntax-ns#">
   <cc:Work>
    <dc:type rdf:resource="http://purl.org/dc/dcmitype/StillImage"/>
    <dc:date>2021-05-13T00:54:31.740372</dc:date>
    <dc:format>image/svg+xml</dc:format>
    <dc:creator>
     <cc:Agent>
      <dc:title>Matplotlib v3.3.4, https://matplotlib.org/</dc:title>
     </cc:Agent>
    </dc:creator>
   </cc:Work>
  </rdf:RDF>
 </metadata>
 <defs>
  <style type="text/css">*{stroke-linecap:butt;stroke-linejoin:round;}</style>
 </defs>
 <g id="figure_1">
  <g id="patch_1">
   <path d="M 0 248.518125 
L 372.103125 248.518125 
L 372.103125 0 
L 0 0 
z
" style="fill:none;"/>
  </g>
  <g id="axes_1">
   <g id="patch_2">
    <path d="M 30.103125 224.64 
L 364.903125 224.64 
L 364.903125 7.2 
L 30.103125 7.2 
z
" style="fill:#ffffff;"/>
   </g>
   <g id="matplotlib.axis_1">
    <g id="xtick_1">
     <g id="line2d_1">
      <defs>
       <path d="M 0 0 
L 0 3.5 
" id="m578ff0615c" style="stroke:#000000;stroke-width:0.8;"/>
      </defs>
      <g>
       <use style="stroke:#000000;stroke-width:0.8;" x="45.321307" xlink:href="#m578ff0615c" y="224.64"/>
      </g>
     </g>
     <g id="text_1">
      <!-- 0 -->
      <g transform="translate(42.140057 239.238437)scale(0.1 -0.1)">
       <defs>
        <path d="M 31.78125 66.40625 
Q 24.171875 66.40625 20.328125 58.90625 
Q 16.5 51.421875 16.5 36.375 
Q 16.5 21.390625 20.328125 13.890625 
Q 24.171875 6.390625 31.78125 6.390625 
Q 39.453125 6.390625 43.28125 13.890625 
Q 47.125 21.390625 47.125 36.375 
Q 47.125 51.421875 43.28125 58.90625 
Q 39.453125 66.40625 31.78125 66.40625 
z
M 31.78125 74.21875 
Q 44.046875 74.21875 50.515625 64.515625 
Q 56.984375 54.828125 56.984375 36.375 
Q 56.984375 17.96875 50.515625 8.265625 
Q 44.046875 -1.421875 31.78125 -1.421875 
Q 19.53125 -1.421875 13.0625 8.265625 
Q 6.59375 17.96875 6.59375 36.375 
Q 6.59375 54.828125 13.0625 64.515625 
Q 19.53125 74.21875 31.78125 74.21875 
z
" id="DejaVuSans-48"/>
       </defs>
       <use xlink:href="#DejaVuSans-48"/>
      </g>
     </g>
    </g>
    <g id="xtick_2">
     <g id="line2d_2">
      <g>
       <use style="stroke:#000000;stroke-width:0.8;" x="106.316024" xlink:href="#m578ff0615c" y="224.64"/>
      </g>
     </g>
     <g id="text_2">
      <!-- 100 -->
      <g transform="translate(96.772274 239.238437)scale(0.1 -0.1)">
       <defs>
        <path d="M 12.40625 8.296875 
L 28.515625 8.296875 
L 28.515625 63.921875 
L 10.984375 60.40625 
L 10.984375 69.390625 
L 28.421875 72.90625 
L 38.28125 72.90625 
L 38.28125 8.296875 
L 54.390625 8.296875 
L 54.390625 0 
L 12.40625 0 
z
" id="DejaVuSans-49"/>
       </defs>
       <use xlink:href="#DejaVuSans-49"/>
       <use x="63.623047" xlink:href="#DejaVuSans-48"/>
       <use x="127.246094" xlink:href="#DejaVuSans-48"/>
      </g>
     </g>
    </g>
    <g id="xtick_3">
     <g id="line2d_3">
      <g>
       <use style="stroke:#000000;stroke-width:0.8;" x="167.31074" xlink:href="#m578ff0615c" y="224.64"/>
      </g>
     </g>
     <g id="text_3">
      <!-- 200 -->
      <g transform="translate(157.76699 239.238437)scale(0.1 -0.1)">
       <defs>
        <path d="M 19.1875 8.296875 
L 53.609375 8.296875 
L 53.609375 0 
L 7.328125 0 
L 7.328125 8.296875 
Q 12.9375 14.109375 22.625 23.890625 
Q 32.328125 33.6875 34.8125 36.53125 
Q 39.546875 41.84375 41.421875 45.53125 
Q 43.3125 49.21875 43.3125 52.78125 
Q 43.3125 58.59375 39.234375 62.25 
Q 35.15625 65.921875 28.609375 65.921875 
Q 23.96875 65.921875 18.8125 64.3125 
Q 13.671875 62.703125 7.8125 59.421875 
L 7.8125 69.390625 
Q 13.765625 71.78125 18.9375 73 
Q 24.125 74.21875 28.421875 74.21875 
Q 39.75 74.21875 46.484375 68.546875 
Q 53.21875 62.890625 53.21875 53.421875 
Q 53.21875 48.921875 51.53125 44.890625 
Q 49.859375 40.875 45.40625 35.40625 
Q 44.1875 33.984375 37.640625 27.21875 
Q 31.109375 20.453125 19.1875 8.296875 
z
" id="DejaVuSans-50"/>
       </defs>
       <use xlink:href="#DejaVuSans-50"/>
       <use x="63.623047" xlink:href="#DejaVuSans-48"/>
       <use x="127.246094" xlink:href="#DejaVuSans-48"/>
      </g>
     </g>
    </g>
    <g id="xtick_4">
     <g id="line2d_4">
      <g>
       <use style="stroke:#000000;stroke-width:0.8;" x="228.305457" xlink:href="#m578ff0615c" y="224.64"/>
      </g>
     </g>
     <g id="text_4">
      <!-- 300 -->
      <g transform="translate(218.761707 239.238437)scale(0.1 -0.1)">
       <defs>
        <path d="M 40.578125 39.3125 
Q 47.65625 37.796875 51.625 33 
Q 55.609375 28.21875 55.609375 21.1875 
Q 55.609375 10.40625 48.1875 4.484375 
Q 40.765625 -1.421875 27.09375 -1.421875 
Q 22.515625 -1.421875 17.65625 -0.515625 
Q 12.796875 0.390625 7.625 2.203125 
L 7.625 11.71875 
Q 11.71875 9.328125 16.59375 8.109375 
Q 21.484375 6.890625 26.8125 6.890625 
Q 36.078125 6.890625 40.9375 10.546875 
Q 45.796875 14.203125 45.796875 21.1875 
Q 45.796875 27.640625 41.28125 31.265625 
Q 36.765625 34.90625 28.71875 34.90625 
L 20.21875 34.90625 
L 20.21875 43.015625 
L 29.109375 43.015625 
Q 36.375 43.015625 40.234375 45.921875 
Q 44.09375 48.828125 44.09375 54.296875 
Q 44.09375 59.90625 40.109375 62.90625 
Q 36.140625 65.921875 28.71875 65.921875 
Q 24.65625 65.921875 20.015625 65.03125 
Q 15.375 64.15625 9.8125 62.3125 
L 9.8125 71.09375 
Q 15.4375 72.65625 20.34375 73.4375 
Q 25.25 74.21875 29.59375 74.21875 
Q 40.828125 74.21875 47.359375 69.109375 
Q 53.90625 64.015625 53.90625 55.328125 
Q 53.90625 49.265625 50.4375 45.09375 
Q 46.96875 40.921875 40.578125 39.3125 
z
" id="DejaVuSans-51"/>
       </defs>
       <use xlink:href="#DejaVuSans-51"/>
       <use x="63.623047" xlink:href="#DejaVuSans-48"/>
       <use x="127.246094" xlink:href="#DejaVuSans-48"/>
      </g>
     </g>
    </g>
    <g id="xtick_5">
     <g id="line2d_5">
      <g>
       <use style="stroke:#000000;stroke-width:0.8;" x="289.300174" xlink:href="#m578ff0615c" y="224.64"/>
      </g>
     </g>
     <g id="text_5">
      <!-- 400 -->
      <g transform="translate(279.756424 239.238437)scale(0.1 -0.1)">
       <defs>
        <path d="M 37.796875 64.3125 
L 12.890625 25.390625 
L 37.796875 25.390625 
z
M 35.203125 72.90625 
L 47.609375 72.90625 
L 47.609375 25.390625 
L 58.015625 25.390625 
L 58.015625 17.1875 
L 47.609375 17.1875 
L 47.609375 0 
L 37.796875 0 
L 37.796875 17.1875 
L 4.890625 17.1875 
L 4.890625 26.703125 
z
" id="DejaVuSans-52"/>
       </defs>
       <use xlink:href="#DejaVuSans-52"/>
       <use x="63.623047" xlink:href="#DejaVuSans-48"/>
       <use x="127.246094" xlink:href="#DejaVuSans-48"/>
      </g>
     </g>
    </g>
    <g id="xtick_6">
     <g id="line2d_6">
      <g>
       <use style="stroke:#000000;stroke-width:0.8;" x="350.29489" xlink:href="#m578ff0615c" y="224.64"/>
      </g>
     </g>
     <g id="text_6">
      <!-- 500 -->
      <g transform="translate(340.75114 239.238437)scale(0.1 -0.1)">
       <defs>
        <path d="M 10.796875 72.90625 
L 49.515625 72.90625 
L 49.515625 64.59375 
L 19.828125 64.59375 
L 19.828125 46.734375 
Q 21.96875 47.46875 24.109375 47.828125 
Q 26.265625 48.1875 28.421875 48.1875 
Q 40.625 48.1875 47.75 41.5 
Q 54.890625 34.8125 54.890625 23.390625 
Q 54.890625 11.625 47.5625 5.09375 
Q 40.234375 -1.421875 26.90625 -1.421875 
Q 22.3125 -1.421875 17.546875 -0.640625 
Q 12.796875 0.140625 7.71875 1.703125 
L 7.71875 11.625 
Q 12.109375 9.234375 16.796875 8.0625 
Q 21.484375 6.890625 26.703125 6.890625 
Q 35.15625 6.890625 40.078125 11.328125 
Q 45.015625 15.765625 45.015625 23.390625 
Q 45.015625 31 40.078125 35.4375 
Q 35.15625 39.890625 26.703125 39.890625 
Q 22.75 39.890625 18.8125 39.015625 
Q 14.890625 38.140625 10.796875 36.28125 
z
" id="DejaVuSans-53"/>
       </defs>
       <use xlink:href="#DejaVuSans-53"/>
       <use x="63.623047" xlink:href="#DejaVuSans-48"/>
       <use x="127.246094" xlink:href="#DejaVuSans-48"/>
      </g>
     </g>
    </g>
   </g>
   <g id="matplotlib.axis_2">
    <g id="ytick_1">
     <g id="line2d_7">
      <defs>
       <path d="M 0 0 
L -3.5 0 
" id="mee496db702" style="stroke:#000000;stroke-width:0.8;"/>
      </defs>
      <g>
       <use style="stroke:#000000;stroke-width:0.8;" x="30.103125" xlink:href="#mee496db702" y="221.44073"/>
      </g>
     </g>
     <g id="text_7">
      <!-- 0.0 -->
      <g transform="translate(7.2 225.239949)scale(0.1 -0.1)">
       <defs>
        <path d="M 10.6875 12.40625 
L 21 12.40625 
L 21 0 
L 10.6875 0 
z
" id="DejaVuSans-46"/>
       </defs>
       <use xlink:href="#DejaVuSans-48"/>
       <use x="63.623047" xlink:href="#DejaVuSans-46"/>
       <use x="95.410156" xlink:href="#DejaVuSans-48"/>
      </g>
     </g>
    </g>
    <g id="ytick_2">
     <g id="line2d_8">
      <g>
       <use style="stroke:#000000;stroke-width:0.8;" x="30.103125" xlink:href="#mee496db702" y="196.613964"/>
      </g>
     </g>
     <g id="text_8">
      <!-- 0.5 -->
      <g transform="translate(7.2 200.413182)scale(0.1 -0.1)">
       <use xlink:href="#DejaVuSans-48"/>
       <use x="63.623047" xlink:href="#DejaVuSans-46"/>
       <use x="95.410156" xlink:href="#DejaVuSans-53"/>
      </g>
     </g>
    </g>
    <g id="ytick_3">
     <g id="line2d_9">
      <g>
       <use style="stroke:#000000;stroke-width:0.8;" x="30.103125" xlink:href="#mee496db702" y="171.787197"/>
      </g>
     </g>
     <g id="text_9">
      <!-- 1.0 -->
      <g transform="translate(7.2 175.586416)scale(0.1 -0.1)">
       <use xlink:href="#DejaVuSans-49"/>
       <use x="63.623047" xlink:href="#DejaVuSans-46"/>
       <use x="95.410156" xlink:href="#DejaVuSans-48"/>
      </g>
     </g>
    </g>
    <g id="ytick_4">
     <g id="line2d_10">
      <g>
       <use style="stroke:#000000;stroke-width:0.8;" x="30.103125" xlink:href="#mee496db702" y="146.96043"/>
      </g>
     </g>
     <g id="text_10">
      <!-- 1.5 -->
      <g transform="translate(7.2 150.759649)scale(0.1 -0.1)">
       <use xlink:href="#DejaVuSans-49"/>
       <use x="63.623047" xlink:href="#DejaVuSans-46"/>
       <use x="95.410156" xlink:href="#DejaVuSans-53"/>
      </g>
     </g>
    </g>
    <g id="ytick_5">
     <g id="line2d_11">
      <g>
       <use style="stroke:#000000;stroke-width:0.8;" x="30.103125" xlink:href="#mee496db702" y="122.133664"/>
      </g>
     </g>
     <g id="text_11">
      <!-- 2.0 -->
      <g transform="translate(7.2 125.932882)scale(0.1 -0.1)">
       <use xlink:href="#DejaVuSans-50"/>
       <use x="63.623047" xlink:href="#DejaVuSans-46"/>
       <use x="95.410156" xlink:href="#DejaVuSans-48"/>
      </g>
     </g>
    </g>
    <g id="ytick_6">
     <g id="line2d_12">
      <g>
       <use style="stroke:#000000;stroke-width:0.8;" x="30.103125" xlink:href="#mee496db702" y="97.306897"/>
      </g>
     </g>
     <g id="text_12">
      <!-- 2.5 -->
      <g transform="translate(7.2 101.106116)scale(0.1 -0.1)">
       <use xlink:href="#DejaVuSans-50"/>
       <use x="63.623047" xlink:href="#DejaVuSans-46"/>
       <use x="95.410156" xlink:href="#DejaVuSans-53"/>
      </g>
     </g>
    </g>
    <g id="ytick_7">
     <g id="line2d_13">
      <g>
       <use style="stroke:#000000;stroke-width:0.8;" x="30.103125" xlink:href="#mee496db702" y="72.48013"/>
      </g>
     </g>
     <g id="text_13">
      <!-- 3.0 -->
      <g transform="translate(7.2 76.279349)scale(0.1 -0.1)">
       <use xlink:href="#DejaVuSans-51"/>
       <use x="63.623047" xlink:href="#DejaVuSans-46"/>
       <use x="95.410156" xlink:href="#DejaVuSans-48"/>
      </g>
     </g>
    </g>
    <g id="ytick_8">
     <g id="line2d_14">
      <g>
       <use style="stroke:#000000;stroke-width:0.8;" x="30.103125" xlink:href="#mee496db702" y="47.653364"/>
      </g>
     </g>
     <g id="text_14">
      <!-- 3.5 -->
      <g transform="translate(7.2 51.452583)scale(0.1 -0.1)">
       <use xlink:href="#DejaVuSans-51"/>
       <use x="63.623047" xlink:href="#DejaVuSans-46"/>
       <use x="95.410156" xlink:href="#DejaVuSans-53"/>
      </g>
     </g>
    </g>
    <g id="ytick_9">
     <g id="line2d_15">
      <g>
       <use style="stroke:#000000;stroke-width:0.8;" x="30.103125" xlink:href="#mee496db702" y="22.826597"/>
      </g>
     </g>
     <g id="text_15">
      <!-- 4.0 -->
      <g transform="translate(7.2 26.625816)scale(0.1 -0.1)">
       <use xlink:href="#DejaVuSans-52"/>
       <use x="63.623047" xlink:href="#DejaVuSans-46"/>
       <use x="95.410156" xlink:href="#DejaVuSans-48"/>
      </g>
     </g>
    </g>
   </g>
   <g id="line2d_16">
    <path clip-path="url(#p60986c0052)" d="M 45.321307 200.671316 
L 45.931254 142.187898 
L 46.541201 138.425507 
L 47.151148 204.508241 
L 47.761095 200.538661 
L 48.371043 141.699414 
L 48.98099 203.466883 
L 49.590937 199.397778 
L 50.200884 141.591016 
L 50.810831 142.212504 
L 51.420778 145.273351 
L 52.030726 204.837212 
L 52.640673 202.941131 
L 53.25062 195.650419 
L 53.860567 203.913121 
L 54.470514 140.27225 
L 55.080461 207.037888 
L 55.690409 142.57294 
L 56.300356 203.722946 
L 56.910303 205.281671 
L 57.52025 140.75967 
L 58.130197 206.051735 
L 58.740144 76.413911 
L 59.960039 204.925601 
L 60.569986 17.083636 
L 62.399827 203.474933 
L 63.009775 140.594608 
L 63.619722 138.449125 
L 64.229669 145.085707 
L 64.839616 18.822994 
L 65.449563 206.582062 
L 66.05951 79.804277 
L 67.279405 206.849606 
L 67.889352 204.797639 
L 68.499299 143.275391 
L 69.109246 146.3199 
L 69.719194 142.610479 
L 70.329141 143.810945 
L 70.939088 142.333232 
L 71.549035 205.248961 
L 72.158982 137.272306 
L 72.768929 202.349986 
L 73.378877 135.008434 
L 73.988824 202.626285 
L 74.598771 205.303242 
L 75.208718 199.700348 
L 75.818665 201.420625 
L 76.428612 142.608118 
L 77.03856 20.931234 
L 77.648507 83.061284 
L 78.258454 207.051078 
L 79.478348 92.536798 
L 80.088295 197.7041 
L 80.698243 146.52465 
L 81.30819 200.385444 
L 81.918137 152.168571 
L 82.528084 200.609444 
L 83.138031 200.808636 
L 83.747978 202.908914 
L 84.357926 204.460932 
L 84.967873 88.466486 
L 85.57782 89.551622 
L 86.187767 206.783119 
L 86.797714 101.226827 
L 87.407661 201.869871 
L 88.017609 190.459059 
L 88.627556 193.332904 
L 89.237503 149.624225 
L 89.84745 154.928688 
L 90.457397 152.214569 
L 91.067344 204.435591 
L 91.677292 104.69954 
L 92.287239 200.984703 
L 92.897186 201.468682 
L 93.507133 152.855727 
L 94.11708 198.785795 
L 94.727027 203.904301 
L 95.336975 102.755013 
L 95.946922 200.845668 
L 96.556869 149.256977 
L 97.166816 192.336685 
L 97.776763 200.267333 
L 98.38671 158.066253 
L 98.996658 152.491888 
L 99.606605 200.490996 
L 100.216552 155.373401 
L 100.826499 153.352031 
L 101.436446 111.533687 
L 102.656341 206.372135 
L 103.876235 204.274181 
L 104.486182 204.879301 
L 105.096129 198.122851 
L 105.706076 203.543357 
L 106.316024 115.721411 
L 106.925971 117.415239 
L 107.535918 165.527481 
L 108.145865 197.479555 
L 108.755812 154.528648 
L 109.365759 119.580835 
L 109.975707 191.274992 
L 110.585654 199.496214 
L 111.195601 198.273836 
L 111.805548 156.858116 
L 112.415495 195.347574 
L 113.025442 159.750959 
L 113.63539 157.212106 
L 114.245337 200.705539 
L 114.855284 203.963101 
L 115.465231 165.422748 
L 116.075178 206.697619 
L 116.685125 206.151633 
L 117.295073 201.638841 
L 117.90502 125.787089 
L 118.514967 204.707606 
L 119.124914 160.216116 
L 119.734861 201.04547 
L 120.344808 200.568134 
L 120.954756 202.620459 
L 121.564703 128.431197 
L 122.17465 205.237796 
L 122.784597 131.451692 
L 123.394544 205.039101 
L 124.004491 174.002745 
L 124.614439 196.120806 
L 125.224386 198.995484 
L 125.834333 166.895548 
L 126.44428 106.721112 
L 127.054227 171.182128 
L 127.664174 171.764361 
L 128.274122 185.637978 
L 128.884069 202.334029 
L 129.494016 176.969276 
L 130.103963 200.655733 
L 130.71391 150.788323 
L 131.323857 204.669256 
L 131.933805 201.644007 
L 132.543752 159.820184 
L 133.153699 179.699404 
L 134.373593 128.096764 
L 134.98354 140.700567 
L 135.593488 157.007368 
L 136.203435 204.488668 
L 136.813382 192.473619 
L 137.423329 202.102301 
L 138.033276 160.791796 
L 138.643223 171.324822 
L 139.253171 202.981378 
L 139.863118 151.785347 
L 140.473065 146.72322 
L 141.083012 179.573204 
L 141.692959 202.172415 
L 142.302906 187.824416 
L 142.912854 184.894821 
L 143.522801 167.470861 
L 144.132748 202.23431 
L 144.742695 206.145687 
L 145.352642 168.372663 
L 145.962589 151.792237 
L 146.572537 205.892884 
L 147.182484 193.816197 
L 147.792431 169.565019 
L 148.402378 185.154051 
L 149.012325 176.074529 
L 149.622272 149.07057 
L 150.23222 194.023957 
L 150.842167 193.572639 
L 151.452114 194.669628 
L 152.062061 205.406065 
L 152.672008 204.547401 
L 153.281955 196.021837 
L 153.891903 206.515573 
L 154.50185 193.38517 
L 155.111797 194.809084 
L 155.721744 209.521361 
L 156.331691 179.246736 
L 156.941638 194.260253 
L 157.551586 203.355946 
L 158.161533 198.805789 
L 158.77148 198.555851 
L 159.381427 199.70029 
L 159.991374 201.249886 
L 160.601321 199.362963 
L 161.211269 206.019844 
L 161.821216 203.510152 
L 162.431163 202.254921 
L 163.04111 192.948241 
L 163.651057 187.435536 
L 164.261004 200.530437 
L 164.870952 199.826784 
L 165.480899 204.798906 
L 166.090846 206.208389 
L 166.700793 204.926325 
L 167.31074 208.640786 
L 167.920687 204.085632 
L 168.530635 204.336251 
L 169.140582 199.311794 
L 169.750529 200.206577 
L 170.360476 197.499134 
L 170.970423 206.034651 
L 171.58037 197.559707 
L 172.190318 199.211203 
L 172.800265 203.196553 
L 173.410212 205.624231 
L 174.020159 199.0534 
L 174.630106 204.11728 
L 175.240053 202.180603 
L 175.850001 205.224769 
L 176.459948 204.204262 
L 177.069895 196.674472 
L 177.679842 202.269037 
L 178.289789 198.526762 
L 178.899736 199.294214 
L 179.509684 205.266814 
L 180.119631 201.228776 
L 180.729578 203.824598 
L 181.339525 199.400368 
L 181.949472 209.309048 
L 182.559419 205.423588 
L 183.169367 203.244325 
L 183.779314 203.662314 
L 184.389261 202.272599 
L 184.999208 204.447639 
L 185.609155 202.971367 
L 186.219102 205.686961 
L 186.82905 200.646803 
L 187.438997 209.428089 
L 188.048944 208.39278 
L 188.658891 209.745005 
L 189.268838 202.015406 
L 189.878785 208.88405 
L 190.488733 204.688857 
L 191.09868 204.040313 
L 191.708627 208.503742 
L 192.318574 204.673776 
L 192.928521 204.261208 
L 193.538468 206.613908 
L 194.148416 206.12098 
L 194.758363 206.449528 
L 195.978257 202.344574 
L 196.588204 206.725874 
L 197.198151 206.52343 
L 197.808099 209.487684 
L 198.418046 207.823866 
L 199.027993 203.880039 
L 199.63794 204.233968 
L 200.247887 205.591252 
L 200.857834 207.407549 
L 202.077729 204.433874 
L 202.687676 204.239854 
L 203.297623 203.358496 
L 203.90757 207.696619 
L 204.517517 203.432124 
L 205.127465 206.824001 
L 205.737412 206.554945 
L 206.347359 208.540182 
L 206.957306 209.318963 
L 207.567253 209.702011 
L 208.787148 205.984214 
L 209.397095 209.025549 
L 210.007042 207.059265 
L 210.616989 207.266236 
L 211.226936 211.054934 
L 211.836883 209.222757 
L 212.446831 209.72386 
L 213.056778 205.533931 
L 213.666725 207.802193 
L 214.276672 207.714944 
L 214.886619 207.900415 
L 215.496566 210.378257 
L 216.106514 207.658288 
L 216.716461 209.720852 
L 217.326408 208.35221 
L 217.936355 211.016612 
L 218.546302 209.727947 
L 219.156249 205.477175 
L 219.766197 205.880461 
L 220.376144 209.31638 
L 220.986091 209.810368 
L 221.596038 210.115013 
L 222.205985 209.564417 
L 222.815932 208.383821 
L 223.42588 208.918536 
L 224.035827 207.388841 
L 225.255721 208.54853 
L 225.865668 209.490685 
L 226.475615 209.286062 
L 227.085563 211.025677 
L 227.69551 208.172123 
L 228.305457 209.350925 
L 228.915404 212.621897 
L 229.525351 205.691382 
L 230.135298 208.848001 
L 230.745246 210.826336 
L 231.355193 208.60301 
L 231.96514 209.759076 
L 232.575087 214.003407 
L 233.185034 209.771733 
L 233.794981 207.365175 
L 234.404929 207.712506 
L 235.014876 211.507966 
L 235.624823 210.57468 
L 236.23477 211.138222 
L 236.844717 209.563722 
L 237.454664 208.944525 
L 238.064612 207.004741 
L 238.674559 207.853537 
L 239.284506 206.231519 
L 239.894453 208.052396 
L 240.5044 211.129637 
L 241.724295 207.963783 
L 242.334242 208.959756 
L 242.944189 208.652491 
L 243.554136 211.199884 
L 244.164083 207.907364 
L 244.77403 207.038462 
L 245.383978 204.755227 
L 245.993925 210.34391 
L 246.603872 208.256613 
L 247.213819 209.812689 
L 247.823766 210.358958 
L 248.433713 207.874547 
L 249.653608 209.744728 
L 250.263555 212.043881 
L 250.873502 208.088788 
L 251.483449 205.634894 
L 252.093396 212.162488 
L 252.703344 212.622096 
L 253.313291 207.770237 
L 253.923238 210.799543 
L 254.533185 211.283612 
L 255.143132 210.134892 
L 256.972974 208.716866 
L 257.582921 209.776419 
L 258.192868 206.437585 
L 258.802815 210.433431 
L 259.412762 208.937857 
L 260.02271 208.361884 
L 260.632657 206.766043 
L 261.852551 210.21287 
L 262.462498 209.645356 
L 263.072445 210.120695 
L 263.682393 208.540278 
L 264.29234 209.887474 
L 264.902287 210.462294 
L 265.512234 209.744156 
L 266.122181 208.658349 
L 266.732128 209.847565 
L 267.342076 209.353152 
L 268.56197 206.571069 
L 269.171917 208.257656 
L 269.781864 212.379964 
L 270.391811 209.912355 
L 271.001759 211.747084 
L 271.611706 208.091988 
L 272.221653 211.014743 
L 272.8316 211.324684 
L 274.051494 209.537571 
L 274.661442 210.112162 
L 275.271389 208.348401 
L 275.881336 210.286908 
L 276.491283 208.142314 
L 277.10123 208.878391 
L 277.711177 208.861878 
L 278.321125 208.552654 
L 278.931072 208.472862 
L 279.541019 210.758727 
L 280.150966 209.591002 
L 280.760913 208.900995 
L 281.37086 210.000825 
L 281.980808 206.980329 
L 282.590755 210.272718 
L 283.200702 209.127553 
L 283.810649 207.108644 
L 284.420596 208.954919 
L 285.030543 207.493295 
L 285.640491 210.016009 
L 286.250438 205.528567 
L 286.860385 208.926797 
L 287.470332 208.20023 
L 288.080279 208.903204 
L 288.690226 210.949351 
L 289.300174 210.515284 
L 289.910121 208.675613 
L 290.520068 209.000015 
L 291.130015 214.449645 
L 291.739962 211.854806 
L 292.349909 210.166506 
L 292.959857 212.441231 
L 293.569804 212.16554 
L 294.179751 211.61998 
L 294.789698 210.209656 
L 295.399645 210.589381 
L 296.009592 210.079889 
L 297.229487 207.740133 
L 298.449381 211.7947 
L 299.059328 211.679121 
L 299.669275 206.59498 
L 300.279223 212.400433 
L 300.88917 210.729663 
L 301.499117 208.017724 
L 302.109064 211.478063 
L 302.719011 211.495988 
L 303.328958 212.82325 
L 303.938906 211.130999 
L 304.548853 210.547224 
L 305.1588 210.623185 
L 305.768747 211.629738 
L 306.378694 210.091709 
L 306.988641 210.168535 
L 307.598589 213.234934 
L 308.208536 209.588246 
L 308.818483 213.550763 
L 310.038377 207.657133 
L 311.258272 213.455184 
L 311.868219 211.182408 
L 312.478166 214.170223 
L 313.088113 209.780373 
L 313.69806 211.228848 
L 314.308007 212.135063 
L 314.917955 209.938605 
L 315.527902 212.151554 
L 316.137849 209.244042 
L 316.747796 209.095478 
L 317.357743 213.066582 
L 317.96769 210.034501 
L 318.577638 212.874727 
L 319.187585 211.458111 
L 319.797532 208.452978 
L 320.407479 213.318361 
L 321.017426 212.144924 
L 321.627373 211.329659 
L 322.237321 212.339922 
L 322.847268 209.317621 
L 323.457215 212.442209 
L 324.067162 208.928794 
L 324.677109 209.694977 
L 325.287056 209.0702 
L 325.897004 210.350858 
L 326.506951 211.98895 
L 327.116898 211.716599 
L 327.726845 212.130974 
L 328.336792 209.928729 
L 328.94674 211.320834 
L 329.556687 210.313898 
L 330.166634 210.163724 
L 330.776581 212.688182 
L 331.386528 210.373376 
L 331.996475 214.029224 
L 332.606423 213.317642 
L 333.826317 214.756364 
L 334.436264 209.006732 
L 335.046211 210.477996 
L 335.656158 210.035998 
L 336.266106 210.708148 
L 336.876053 213.819196 
L 337.486 211.787242 
L 338.095947 210.842988 
L 338.705894 213.497056 
L 339.315841 210.323518 
L 339.925789 211.723633 
L 340.535736 212.321676 
L 341.145683 212.467267 
L 341.75563 214.144465 
L 342.365577 212.494489 
L 342.975524 212.021546 
L 343.585472 213.34583 
L 344.195419 210.488516 
L 344.805366 209.577911 
L 345.415313 213.534522 
L 346.02526 212.554272 
L 346.635207 206.930396 
L 347.245155 214.710272 
L 347.855102 211.869985 
L 348.465049 211.105882 
L 349.074996 212.396027 
L 349.684943 209.636495 
L 349.684943 209.636495 
" style="fill:none;stroke:#1f77b4;stroke-linecap:square;stroke-width:1.5;"/>
   </g>
   <g id="patch_3">
    <path d="M 30.103125 224.64 
L 30.103125 7.2 
" style="fill:none;stroke:#000000;stroke-linecap:square;stroke-linejoin:miter;stroke-width:0.8;"/>
   </g>
   <g id="patch_4">
    <path d="M 364.903125 224.64 
L 364.903125 7.2 
" style="fill:none;stroke:#000000;stroke-linecap:square;stroke-linejoin:miter;stroke-width:0.8;"/>
   </g>
   <g id="patch_5">
    <path d="M 30.103125 224.64 
L 364.903125 224.64 
" style="fill:none;stroke:#000000;stroke-linecap:square;stroke-linejoin:miter;stroke-width:0.8;"/>
   </g>
   <g id="patch_6">
    <path d="M 30.103125 7.2 
L 364.903125 7.2 
" style="fill:none;stroke:#000000;stroke-linecap:square;stroke-linejoin:miter;stroke-width:0.8;"/>
   </g>
  </g>
 </g>
 <defs>
  <clipPath id="p60986c0052">
   <rect height="217.44" width="334.8" x="30.103125" y="7.2"/>
  </clipPath>
 </defs>
</svg>
